<svg xmlns="http://www.w3.org/2000/svg" viewBox="0 0 810 998" font-family="Arial,'Noto Sans SC',sans-serif">
<rect x="0" y="0" width="810" height="998" fill="#ffffff"/>
<text x="30" y="30" font-size="20" font-weight="bold" fill="#111">Brick slip layout 砖片排布 — Canopy pitched slope L (40° soffit)</text>
<text x="30" y="54" font-size="13" fill="#444">雨棚左坡面（40°底面） · 100 slips 片</text>
<text x="30" y="72" font-size="11" fill="#888">3 Monahan Ave (HA23007) · black-corners-flat revision · dims mm</text>
<rect x="30.0" y="86.0" width="326.0" height="850.0" fill="#f4f2ee" stroke="#bbb" stroke-width="0.6"/>
<polygon points="30.0,116.3 80.1,116.3 80.1,86.0 30.0,86.0" fill="#d65188" stroke="#5a5a5a" stroke-width="0.3"/>
<polygon points="84.7,116.3 184.9,116.3 184.9,86.0 84.7,86.0" fill="#5167d6" stroke="#5a5a5a" stroke-width="0.3"/>
<polygon points="189.5,116.3 289.7,116.3 289.7,86.0 189.5,86.0" fill="#5167d6" stroke="#5a5a5a" stroke-width="0.3"/>
<polygon points="294.3,116.3 356.0,116.3 356.0,86.0 294.3,86.0" fill="#af51d6" stroke="#5a5a5a" stroke-width="0.3"/>
<polygon points="30.0,151.2 130.1,151.2 130.1,120.9 30.0,120.9" fill="#5167d6" stroke="#5a5a5a" stroke-width="0.3"/>
<polygon points="134.8,151.2 234.9,151.2 234.9,120.9 134.8,120.9" fill="#5167d6" stroke="#5a5a5a" stroke-width="0.3"/>
<polygon points="239.6,151.2 339.7,151.2 339.7,120.9 239.6,120.9" fill="#5167d6" stroke="#5a5a5a" stroke-width="0.3"/>
<polygon points="344.4,151.2 356.0,151.2 356.0,120.9 344.4,120.9" fill="#d6515b" stroke="#5a5a5a" stroke-width="0.3"/>
<polygon points="30.0,186.1 80.1,186.1 80.1,155.9 30.0,155.9" fill="#d65188" stroke="#5a5a5a" stroke-width="0.3"/>
<polygon points="84.7,186.1 184.9,186.1 184.9,155.9 84.7,155.9" fill="#5167d6" stroke="#5a5a5a" stroke-width="0.3"/>
<polygon points="189.5,186.1 289.7,186.1 289.7,155.9 189.5,155.9" fill="#5167d6" stroke="#5a5a5a" stroke-width="0.3"/>
<polygon points="294.3,186.1 356.0,186.1 356.0,155.9 294.3,155.9" fill="#af51d6" stroke="#5a5a5a" stroke-width="0.3"/>
<polygon points="30.0,221.1 130.1,221.1 130.1,190.8 30.0,190.8" fill="#5167d6" stroke="#5a5a5a" stroke-width="0.3"/>
<polygon points="134.8,221.1 234.9,221.1 234.9,190.8 134.8,190.8" fill="#5167d6" stroke="#5a5a5a" stroke-width="0.3"/>
<polygon points="239.6,221.1 339.7,221.1 339.7,190.8 239.6,190.8" fill="#5167d6" stroke="#5a5a5a" stroke-width="0.3"/>
<polygon points="344.4,221.1 356.0,221.1 356.0,190.8 344.4,190.8" fill="#d6515b" stroke="#5a5a5a" stroke-width="0.3"/>
<polygon points="30.0,256.0 80.1,256.0 80.1,225.7 30.0,225.7" fill="#d65188" stroke="#5a5a5a" stroke-width="0.3"/>
<polygon points="84.7,256.0 184.9,256.0 184.9,225.7 84.7,225.7" fill="#5167d6" stroke="#5a5a5a" stroke-width="0.3"/>
<polygon points="189.5,256.0 289.7,256.0 289.7,225.7 189.5,225.7" fill="#5167d6" stroke="#5a5a5a" stroke-width="0.3"/>
<polygon points="294.3,256.0 356.0,256.0 356.0,225.7 294.3,225.7" fill="#af51d6" stroke="#5a5a5a" stroke-width="0.3"/>
<polygon points="30.0,290.9 130.1,290.9 130.1,260.7 30.0,260.7" fill="#5167d6" stroke="#5a5a5a" stroke-width="0.3"/>
<polygon points="134.8,290.9 234.9,290.9 234.9,260.7 134.8,260.7" fill="#5167d6" stroke="#5a5a5a" stroke-width="0.3"/>
<polygon points="239.6,290.9 339.7,290.9 339.7,260.7 239.6,260.7" fill="#5167d6" stroke="#5a5a5a" stroke-width="0.3"/>
<polygon points="344.4,290.9 356.0,290.9 356.0,260.7 344.4,260.7" fill="#d6515b" stroke="#5a5a5a" stroke-width="0.3"/>
<polygon points="30.0,325.8 80.1,325.8 80.1,295.6 30.0,295.6" fill="#d65188" stroke="#5a5a5a" stroke-width="0.3"/>
<polygon points="84.7,325.8 184.9,325.8 184.9,295.6 84.7,295.6" fill="#5167d6" stroke="#5a5a5a" stroke-width="0.3"/>
<polygon points="189.5,325.8 289.7,325.8 289.7,295.6 189.5,295.6" fill="#5167d6" stroke="#5a5a5a" stroke-width="0.3"/>
<polygon points="294.3,325.8 356.0,325.8 356.0,295.6 294.3,295.6" fill="#af51d6" stroke="#5a5a5a" stroke-width="0.3"/>
<polygon points="30.0,360.8 130.1,360.8 130.1,330.5 30.0,330.5" fill="#5167d6" stroke="#5a5a5a" stroke-width="0.3"/>
<polygon points="134.8,360.8 234.9,360.8 234.9,330.5 134.8,330.5" fill="#5167d6" stroke="#5a5a5a" stroke-width="0.3"/>
<polygon points="239.6,360.8 339.7,360.8 339.7,330.5 239.6,330.5" fill="#5167d6" stroke="#5a5a5a" stroke-width="0.3"/>
<polygon points="344.4,360.8 356.0,360.8 356.0,330.5 344.4,330.5" fill="#d6515b" stroke="#5a5a5a" stroke-width="0.3"/>
<polygon points="30.0,395.7 80.1,395.7 80.1,365.5 30.0,365.5" fill="#d65188" stroke="#5a5a5a" stroke-width="0.3"/>
<polygon points="84.7,395.7 184.9,395.7 184.9,365.5 84.7,365.5" fill="#5167d6" stroke="#5a5a5a" stroke-width="0.3"/>
<polygon points="189.5,395.7 289.7,395.7 289.7,365.5 189.5,365.5" fill="#5167d6" stroke="#5a5a5a" stroke-width="0.3"/>
<polygon points="294.3,395.7 356.0,395.7 356.0,365.5 294.3,365.5" fill="#af51d6" stroke="#5a5a5a" stroke-width="0.3"/>
<polygon points="30.0,430.7 130.1,430.7 130.1,400.4 30.0,400.4" fill="#5167d6" stroke="#5a5a5a" stroke-width="0.3"/>
<polygon points="134.8,430.7 234.9,430.7 234.9,400.4 134.8,400.4" fill="#5167d6" stroke="#5a5a5a" stroke-width="0.3"/>
<polygon points="239.6,430.7 339.7,430.7 339.7,400.4 239.6,400.4" fill="#5167d6" stroke="#5a5a5a" stroke-width="0.3"/>
<polygon points="344.4,430.7 356.0,430.7 356.0,400.4 344.4,400.4" fill="#d6515b" stroke="#5a5a5a" stroke-width="0.3"/>
<polygon points="30.0,465.6 80.1,465.6 80.1,435.3 30.0,435.3" fill="#d65188" stroke="#5a5a5a" stroke-width="0.3"/>
<polygon points="84.7,465.6 184.9,465.6 184.9,435.3 84.7,435.3" fill="#5167d6" stroke="#5a5a5a" stroke-width="0.3"/>
<polygon points="189.5,465.6 289.7,465.6 289.7,435.3 189.5,435.3" fill="#5167d6" stroke="#5a5a5a" stroke-width="0.3"/>
<polygon points="294.3,465.6 356.0,465.6 356.0,435.3 294.3,435.3" fill="#af51d6" stroke="#5a5a5a" stroke-width="0.3"/>
<polygon points="30.0,500.5 130.1,500.5 130.1,470.3 30.0,470.3" fill="#5167d6" stroke="#5a5a5a" stroke-width="0.3"/>
<polygon points="134.8,500.5 234.9,500.5 234.9,470.3 134.8,470.3" fill="#5167d6" stroke="#5a5a5a" stroke-width="0.3"/>
<polygon points="239.6,500.5 339.7,500.5 339.7,470.3 239.6,470.3" fill="#5167d6" stroke="#5a5a5a" stroke-width="0.3"/>
<polygon points="344.4,500.5 356.0,500.5 356.0,470.3 344.4,470.3" fill="#d6515b" stroke="#5a5a5a" stroke-width="0.3"/>
<polygon points="30.0,535.4 80.1,535.4 80.1,505.2 30.0,505.2" fill="#d65188" stroke="#5a5a5a" stroke-width="0.3"/>
<polygon points="84.7,535.4 184.9,535.4 184.9,505.2 84.7,505.2" fill="#5167d6" stroke="#5a5a5a" stroke-width="0.3"/>
<polygon points="189.5,535.4 289.7,535.4 289.7,505.2 189.5,505.2" fill="#5167d6" stroke="#5a5a5a" stroke-width="0.3"/>
<polygon points="294.3,535.4 356.0,535.4 356.0,505.2 294.3,505.2" fill="#af51d6" stroke="#5a5a5a" stroke-width="0.3"/>
<polygon points="30.0,570.4 130.1,570.4 130.1,540.1 30.0,540.1" fill="#5167d6" stroke="#5a5a5a" stroke-width="0.3"/>
<polygon points="134.8,570.4 234.9,570.4 234.9,540.1 134.8,540.1" fill="#5167d6" stroke="#5a5a5a" stroke-width="0.3"/>
<polygon points="239.6,570.4 339.7,570.4 339.7,540.1 239.6,540.1" fill="#5167d6" stroke="#5a5a5a" stroke-width="0.3"/>
<polygon points="344.4,570.4 356.0,570.4 356.0,540.1 344.4,540.1" fill="#d6515b" stroke="#5a5a5a" stroke-width="0.3"/>
<polygon points="30.0,605.3 80.1,605.3 80.1,575.0 30.0,575.0" fill="#d65188" stroke="#5a5a5a" stroke-width="0.3"/>
<polygon points="84.7,605.3 184.9,605.3 184.9,575.0 84.7,575.0" fill="#5167d6" stroke="#5a5a5a" stroke-width="0.3"/>
<polygon points="189.5,605.3 289.7,605.3 289.7,575.0 189.5,575.0" fill="#5167d6" stroke="#5a5a5a" stroke-width="0.3"/>
<polygon points="294.3,605.3 356.0,605.3 356.0,575.0 294.3,575.0" fill="#af51d6" stroke="#5a5a5a" stroke-width="0.3"/>
<polygon points="30.0,640.2 130.1,640.2 130.1,610.0 30.0,610.0" fill="#5167d6" stroke="#5a5a5a" stroke-width="0.3"/>
<polygon points="134.8,640.2 234.9,640.2 234.9,610.0 134.8,610.0" fill="#5167d6" stroke="#5a5a5a" stroke-width="0.3"/>
<polygon points="239.6,640.2 339.7,640.2 339.7,610.0 239.6,610.0" fill="#5167d6" stroke="#5a5a5a" stroke-width="0.3"/>
<polygon points="344.4,640.2 356.0,640.2 356.0,610.0 344.4,610.0" fill="#d6515b" stroke="#5a5a5a" stroke-width="0.3"/>
<polygon points="30.0,675.2 80.1,675.2 80.1,644.9 30.0,644.9" fill="#d65188" stroke="#5a5a5a" stroke-width="0.3"/>
<polygon points="84.7,675.2 184.9,675.2 184.9,644.9 84.7,644.9" fill="#5167d6" stroke="#5a5a5a" stroke-width="0.3"/>
<polygon points="189.5,675.2 289.7,675.2 289.7,644.9 189.5,644.9" fill="#5167d6" stroke="#5a5a5a" stroke-width="0.3"/>
<polygon points="294.3,675.2 356.0,675.2 356.0,644.9 294.3,644.9" fill="#af51d6" stroke="#5a5a5a" stroke-width="0.3"/>
<polygon points="30.0,710.1 130.1,710.1 130.1,679.8 30.0,679.8" fill="#5167d6" stroke="#5a5a5a" stroke-width="0.3"/>
<polygon points="134.8,710.1 234.9,710.1 234.9,679.8 134.8,679.8" fill="#5167d6" stroke="#5a5a5a" stroke-width="0.3"/>
<polygon points="239.6,710.1 339.7,710.1 339.7,679.8 239.6,679.8" fill="#5167d6" stroke="#5a5a5a" stroke-width="0.3"/>
<polygon points="344.4,710.1 356.0,710.1 356.0,679.8 344.4,679.8" fill="#d6515b" stroke="#5a5a5a" stroke-width="0.3"/>
<polygon points="30.0,745.1 80.1,745.1 80.1,714.8 30.0,714.8" fill="#d65188" stroke="#5a5a5a" stroke-width="0.3"/>
<polygon points="84.7,745.1 184.9,745.1 184.9,714.8 84.7,714.8" fill="#5167d6" stroke="#5a5a5a" stroke-width="0.3"/>
<polygon points="189.5,745.1 289.7,745.1 289.7,714.8 189.5,714.8" fill="#5167d6" stroke="#5a5a5a" stroke-width="0.3"/>
<polygon points="294.3,745.1 356.0,745.1 356.0,714.8 294.3,714.8" fill="#af51d6" stroke="#5a5a5a" stroke-width="0.3"/>
<polygon points="30.0,780.0 130.1,780.0 130.1,749.7 30.0,749.7" fill="#5167d6" stroke="#5a5a5a" stroke-width="0.3"/>
<polygon points="134.8,780.0 234.9,780.0 234.9,749.7 134.8,749.7" fill="#5167d6" stroke="#5a5a5a" stroke-width="0.3"/>
<polygon points="239.6,780.0 339.7,780.0 339.7,749.7 239.6,749.7" fill="#5167d6" stroke="#5a5a5a" stroke-width="0.3"/>
<polygon points="344.4,780.0 356.0,780.0 356.0,749.7 344.4,749.7" fill="#d6515b" stroke="#5a5a5a" stroke-width="0.3"/>
<polygon points="30.0,814.9 80.1,814.9 80.1,784.6 30.0,784.6" fill="#d65188" stroke="#5a5a5a" stroke-width="0.3"/>
<polygon points="84.7,814.9 184.9,814.9 184.9,784.6 84.7,784.6" fill="#5167d6" stroke="#5a5a5a" stroke-width="0.3"/>
<polygon points="189.5,814.9 289.7,814.9 289.7,784.6 189.5,784.6" fill="#5167d6" stroke="#5a5a5a" stroke-width="0.3"/>
<polygon points="294.3,814.9 356.0,814.9 356.0,784.6 294.3,784.6" fill="#af51d6" stroke="#5a5a5a" stroke-width="0.3"/>
<polygon points="30.0,849.8 130.1,849.8 130.1,819.6 30.0,819.6" fill="#5167d6" stroke="#5a5a5a" stroke-width="0.3"/>
<polygon points="134.8,849.8 234.9,849.8 234.9,819.6 134.8,819.6" fill="#5167d6" stroke="#5a5a5a" stroke-width="0.3"/>
<polygon points="239.6,849.8 339.7,849.8 339.7,819.6 239.6,819.6" fill="#5167d6" stroke="#5a5a5a" stroke-width="0.3"/>
<polygon points="344.4,849.8 356.0,849.8 356.0,819.6 344.4,819.6" fill="#d6515b" stroke="#5a5a5a" stroke-width="0.3"/>
<polygon points="30.0,884.8 80.1,884.8 80.1,854.5 30.0,854.5" fill="#d65188" stroke="#5a5a5a" stroke-width="0.3"/>
<polygon points="84.7,884.8 184.9,884.8 184.9,854.5 84.7,854.5" fill="#5167d6" stroke="#5a5a5a" stroke-width="0.3"/>
<polygon points="189.5,884.8 289.7,884.8 289.7,854.5 189.5,854.5" fill="#5167d6" stroke="#5a5a5a" stroke-width="0.3"/>
<polygon points="294.3,884.8 356.0,884.8 356.0,854.5 294.3,854.5" fill="#af51d6" stroke="#5a5a5a" stroke-width="0.3"/>
<polygon points="30.0,919.7 130.1,919.7 130.1,889.4 30.0,889.4" fill="#5167d6" stroke="#5a5a5a" stroke-width="0.3"/>
<polygon points="134.8,919.7 234.9,919.7 234.9,889.4 134.8,889.4" fill="#5167d6" stroke="#5a5a5a" stroke-width="0.3"/>
<polygon points="239.6,919.7 339.7,919.7 339.7,889.4 239.6,889.4" fill="#5167d6" stroke="#5a5a5a" stroke-width="0.3"/>
<polygon points="344.4,919.7 356.0,919.7 356.0,889.4 344.4,889.4" fill="#d6515b" stroke="#5a5a5a" stroke-width="0.3"/>
<polygon points="30.0,936.0 80.1,936.0 80.1,924.4 30.0,924.4" fill="#a9d651" stroke="#5a5a5a" stroke-width="0.3"/>
<polygon points="84.7,936.0 184.9,936.0 184.9,924.4 84.7,924.4" fill="#d68e51" stroke="#5a5a5a" stroke-width="0.3"/>
<polygon points="189.5,936.0 289.7,936.0 289.7,924.4 189.5,924.4" fill="#d68e51" stroke="#5a5a5a" stroke-width="0.3"/>
<polygon points="294.3,936.0 356.0,936.0 356.0,924.4 294.3,924.4" fill="#51d6b5" stroke="#5a5a5a" stroke-width="0.3"/>
<text x="380" y="92" font-size="13" font-weight="bold" fill="#111">Type ID 图例 Legend (this face)</text>
<rect x="380" y="104" width="15" height="11" fill="#5167d6" stroke="#555" stroke-width="0.4"/>
<text x="401" y="114" font-size="11.5" fill="#222">B21  215×65  ×60</text>
<rect x="380" y="123" width="15" height="11" fill="#af51d6" stroke="#555" stroke-width="0.4"/>
<text x="401" y="133" font-size="11.5" fill="#222">B24  132×65  ×12</text>
<rect x="380" y="142" width="15" height="11" fill="#d65188" stroke="#555" stroke-width="0.4"/>
<text x="401" y="152" font-size="11.5" fill="#222">B27  108×65  ×12</text>
<rect x="380" y="161" width="15" height="11" fill="#d68e51" stroke="#555" stroke-width="0.4"/>
<text x="401" y="171" font-size="11.5" fill="#222">B30  215×25  ×2</text>
<rect x="380" y="180" width="15" height="11" fill="#51d6b5" stroke="#555" stroke-width="0.4"/>
<text x="401" y="190" font-size="11.5" fill="#222">B31  132×25  ×1</text>
<rect x="380" y="199" width="15" height="11" fill="#a9d651" stroke="#555" stroke-width="0.4"/>
<text x="401" y="209" font-size="11.5" fill="#222">B33  108×25  ×1</text>
<rect x="380" y="218" width="15" height="11" fill="#d6515b" stroke="#555" stroke-width="0.4"/>
<text x="401" y="228" font-size="11.5" fill="#222">B35  25×65  ×12</text>
<rect x="30" y="970.0" width="116.4" height="6" fill="#111"/>
<rect x="146.4" y="970.0" width="116.4" height="6" fill="#999"/>
<text x="30" y="966.0" font-size="11" fill="#111">0</text>
<text x="262.9" y="966.0" font-size="11" fill="#111">500 mm</text>
</svg>