<svg xmlns="http://www.w3.org/2000/svg" viewBox="0 0 610 998" font-family="Arial,'Noto Sans SC',sans-serif">
<rect x="0" y="0" width="610" height="998" fill="#ffffff"/>
<text x="30" y="30" font-size="20" font-weight="bold" fill="#111">Brick slip layout 砖片排布 — Canopy side wall R — inner face</text>
<text x="30" y="54" font-size="13" fill="#444">雨棚右侧墙 — 内面 · 260 slips 片</text>
<text x="30" y="72" font-size="11" fill="#888">3 Monahan Ave (HA23007) · black-corners-flat revision · dims mm</text>
<rect x="30.0" y="86.0" width="126.2" height="850.0" fill="#f4f2ee" stroke="#bbb" stroke-width="0.6"/>
<polygon points="30.0,936.0 48.8,936.0 48.8,924.6 30.0,924.6" fill="#d65188" stroke="#5a5a5a" stroke-width="0.3"/>
<polygon points="50.6,936.0 88.3,936.0 88.3,924.6 50.6,924.6" fill="#5167d6" stroke="#5a5a5a" stroke-width="0.3"/>
<polygon points="90.0,936.0 127.7,936.0 127.7,924.6 90.0,924.6" fill="#5167d6" stroke="#5a5a5a" stroke-width="0.3"/>
<polygon points="129.5,936.0 156.2,936.0 156.2,924.6 129.5,924.6" fill="#51d689" stroke="#5a5a5a" stroke-width="0.3"/>
<polygon points="30.0,922.9 67.7,922.9 67.7,911.5 30.0,911.5" fill="#5167d6" stroke="#5a5a5a" stroke-width="0.3"/>
<polygon points="69.4,922.9 107.1,922.9 107.1,911.5 69.4,911.5" fill="#5167d6" stroke="#5a5a5a" stroke-width="0.3"/>
<polygon points="108.9,922.9 146.5,922.9 146.5,911.5 108.9,911.5" fill="#5167d6" stroke="#5a5a5a" stroke-width="0.3"/>
<polygon points="148.3,922.9 156.2,922.9 156.2,911.5 148.3,911.5" fill="#d651d0" stroke="#5a5a5a" stroke-width="0.3"/>
<polygon points="30.0,909.7 48.8,909.7 48.8,898.3 30.0,898.3" fill="#d65188" stroke="#5a5a5a" stroke-width="0.3"/>
<polygon points="50.6,909.7 88.3,909.7 88.3,898.3 50.6,898.3" fill="#5167d6" stroke="#5a5a5a" stroke-width="0.3"/>
<polygon points="90.0,909.7 127.7,909.7 127.7,898.3 90.0,898.3" fill="#5167d6" stroke="#5a5a5a" stroke-width="0.3"/>
<polygon points="129.5,909.7 156.2,909.7 156.2,898.3 129.5,898.3" fill="#51d689" stroke="#5a5a5a" stroke-width="0.3"/>
<polygon points="30.0,896.6 67.7,896.6 67.7,885.2 30.0,885.2" fill="#5167d6" stroke="#5a5a5a" stroke-width="0.3"/>
<polygon points="69.4,896.6 107.1,896.6 107.1,885.2 69.4,885.2" fill="#5167d6" stroke="#5a5a5a" stroke-width="0.3"/>
<polygon points="108.9,896.6 146.5,896.6 146.5,885.2 108.9,885.2" fill="#5167d6" stroke="#5a5a5a" stroke-width="0.3"/>
<polygon points="148.3,896.6 156.2,896.6 156.2,885.2 148.3,885.2" fill="#d651d0" stroke="#5a5a5a" stroke-width="0.3"/>
<polygon points="30.0,883.4 48.8,883.4 48.8,872.0 30.0,872.0" fill="#d65188" stroke="#5a5a5a" stroke-width="0.3"/>
<polygon points="50.6,883.4 88.3,883.4 88.3,872.0 50.6,872.0" fill="#5167d6" stroke="#5a5a5a" stroke-width="0.3"/>
<polygon points="90.0,883.4 127.7,883.4 127.7,872.0 90.0,872.0" fill="#5167d6" stroke="#5a5a5a" stroke-width="0.3"/>
<polygon points="129.5,883.4 156.2,883.4 156.2,872.0 129.5,872.0" fill="#51d689" stroke="#5a5a5a" stroke-width="0.3"/>
<polygon points="30.0,870.3 67.7,870.3 67.7,858.9 30.0,858.9" fill="#5167d6" stroke="#5a5a5a" stroke-width="0.3"/>
<polygon points="69.4,870.3 107.1,870.3 107.1,858.9 69.4,858.9" fill="#5167d6" stroke="#5a5a5a" stroke-width="0.3"/>
<polygon points="108.9,870.3 146.5,870.3 146.5,858.9 108.9,858.9" fill="#5167d6" stroke="#5a5a5a" stroke-width="0.3"/>
<polygon points="148.3,870.3 156.2,870.3 156.2,858.9 148.3,858.9" fill="#d651d0" stroke="#5a5a5a" stroke-width="0.3"/>
<polygon points="30.0,857.1 48.8,857.1 48.8,845.7 30.0,845.7" fill="#d65188" stroke="#5a5a5a" stroke-width="0.3"/>
<polygon points="50.6,857.1 88.3,857.1 88.3,845.7 50.6,845.7" fill="#5167d6" stroke="#5a5a5a" stroke-width="0.3"/>
<polygon points="90.0,857.1 127.7,857.1 127.7,845.7 90.0,845.7" fill="#5167d6" stroke="#5a5a5a" stroke-width="0.3"/>
<polygon points="129.5,857.1 156.2,857.1 156.2,845.7 129.5,845.7" fill="#51d689" stroke="#5a5a5a" stroke-width="0.3"/>
<polygon points="30.0,844.0 67.7,844.0 67.7,832.6 30.0,832.6" fill="#5167d6" stroke="#5a5a5a" stroke-width="0.3"/>
<polygon points="69.4,844.0 107.1,844.0 107.1,832.6 69.4,832.6" fill="#5167d6" stroke="#5a5a5a" stroke-width="0.3"/>
<polygon points="108.9,844.0 146.5,844.0 146.5,832.6 108.9,832.6" fill="#5167d6" stroke="#5a5a5a" stroke-width="0.3"/>
<polygon points="148.3,844.0 156.2,844.0 156.2,832.6 148.3,832.6" fill="#d651d0" stroke="#5a5a5a" stroke-width="0.3"/>
<polygon points="30.0,830.8 48.8,830.8 48.8,819.5 30.0,819.5" fill="#d65188" stroke="#5a5a5a" stroke-width="0.3"/>
<polygon points="50.6,830.8 88.3,830.8 88.3,819.5 50.6,819.5" fill="#5167d6" stroke="#5a5a5a" stroke-width="0.3"/>
<polygon points="90.0,830.8 127.7,830.8 127.7,819.5 90.0,819.5" fill="#5167d6" stroke="#5a5a5a" stroke-width="0.3"/>
<polygon points="129.5,830.8 156.2,830.8 156.2,819.5 129.5,819.5" fill="#51d689" stroke="#5a5a5a" stroke-width="0.3"/>
<polygon points="30.0,817.7 67.7,817.7 67.7,806.3 30.0,806.3" fill="#5167d6" stroke="#5a5a5a" stroke-width="0.3"/>
<polygon points="69.4,817.7 107.1,817.7 107.1,806.3 69.4,806.3" fill="#5167d6" stroke="#5a5a5a" stroke-width="0.3"/>
<polygon points="108.9,817.7 146.5,817.7 146.5,806.3 108.9,806.3" fill="#5167d6" stroke="#5a5a5a" stroke-width="0.3"/>
<polygon points="148.3,817.7 156.2,817.7 156.2,806.3 148.3,806.3" fill="#d651d0" stroke="#5a5a5a" stroke-width="0.3"/>
<polygon points="30.0,804.6 48.8,804.6 48.8,793.2 30.0,793.2" fill="#d65188" stroke="#5a5a5a" stroke-width="0.3"/>
<polygon points="50.6,804.6 88.3,804.6 88.3,793.2 50.6,793.2" fill="#5167d6" stroke="#5a5a5a" stroke-width="0.3"/>
<polygon points="90.0,804.6 127.7,804.6 127.7,793.2 90.0,793.2" fill="#5167d6" stroke="#5a5a5a" stroke-width="0.3"/>
<polygon points="129.5,804.6 156.2,804.6 156.2,793.2 129.5,793.2" fill="#51d689" stroke="#5a5a5a" stroke-width="0.3"/>
<polygon points="30.0,791.4 67.7,791.4 67.7,780.0 30.0,780.0" fill="#5167d6" stroke="#5a5a5a" stroke-width="0.3"/>
<polygon points="69.4,791.4 107.1,791.4 107.1,780.0 69.4,780.0" fill="#5167d6" stroke="#5a5a5a" stroke-width="0.3"/>
<polygon points="108.9,791.4 146.5,791.4 146.5,780.0 108.9,780.0" fill="#5167d6" stroke="#5a5a5a" stroke-width="0.3"/>
<polygon points="148.3,791.4 156.2,791.4 156.2,780.0 148.3,780.0" fill="#d651d0" stroke="#5a5a5a" stroke-width="0.3"/>
<polygon points="30.0,778.3 48.8,778.3 48.8,766.9 30.0,766.9" fill="#d65188" stroke="#5a5a5a" stroke-width="0.3"/>
<polygon points="50.6,778.3 88.3,778.3 88.3,766.9 50.6,766.9" fill="#5167d6" stroke="#5a5a5a" stroke-width="0.3"/>
<polygon points="90.0,778.3 127.7,778.3 127.7,766.9 90.0,766.9" fill="#5167d6" stroke="#5a5a5a" stroke-width="0.3"/>
<polygon points="129.5,778.3 156.2,778.3 156.2,766.9 129.5,766.9" fill="#51d689" stroke="#5a5a5a" stroke-width="0.3"/>
<polygon points="30.0,765.1 67.7,765.1 67.7,753.7 30.0,753.7" fill="#5167d6" stroke="#5a5a5a" stroke-width="0.3"/>
<polygon points="69.4,765.1 107.1,765.1 107.1,753.7 69.4,753.7" fill="#5167d6" stroke="#5a5a5a" stroke-width="0.3"/>
<polygon points="108.9,765.1 146.5,765.1 146.5,753.7 108.9,753.7" fill="#5167d6" stroke="#5a5a5a" stroke-width="0.3"/>
<polygon points="148.3,765.1 156.2,765.1 156.2,753.7 148.3,753.7" fill="#d651d0" stroke="#5a5a5a" stroke-width="0.3"/>
<polygon points="30.0,752.0 48.8,752.0 48.8,740.6 30.0,740.6" fill="#d65188" stroke="#5a5a5a" stroke-width="0.3"/>
<polygon points="50.6,752.0 88.3,752.0 88.3,740.6 50.6,740.6" fill="#5167d6" stroke="#5a5a5a" stroke-width="0.3"/>
<polygon points="90.0,752.0 127.7,752.0 127.7,740.6 90.0,740.6" fill="#5167d6" stroke="#5a5a5a" stroke-width="0.3"/>
<polygon points="129.5,752.0 156.2,752.0 156.2,740.6 129.5,740.6" fill="#51d689" stroke="#5a5a5a" stroke-width="0.3"/>
<polygon points="30.0,738.8 67.7,738.8 67.7,727.4 30.0,727.4" fill="#5167d6" stroke="#5a5a5a" stroke-width="0.3"/>
<polygon points="69.4,738.8 107.1,738.8 107.1,727.4 69.4,727.4" fill="#5167d6" stroke="#5a5a5a" stroke-width="0.3"/>
<polygon points="108.9,738.8 146.5,738.8 146.5,727.4 108.9,727.4" fill="#5167d6" stroke="#5a5a5a" stroke-width="0.3"/>
<polygon points="148.3,738.8 156.2,738.8 156.2,727.4 148.3,727.4" fill="#d651d0" stroke="#5a5a5a" stroke-width="0.3"/>
<polygon points="30.0,725.7 48.8,725.7 48.8,714.3 30.0,714.3" fill="#d65188" stroke="#5a5a5a" stroke-width="0.3"/>
<polygon points="50.6,725.7 88.3,725.7 88.3,714.3 50.6,714.3" fill="#5167d6" stroke="#5a5a5a" stroke-width="0.3"/>
<polygon points="90.0,725.7 127.7,725.7 127.7,714.3 90.0,714.3" fill="#5167d6" stroke="#5a5a5a" stroke-width="0.3"/>
<polygon points="129.5,725.7 156.2,725.7 156.2,714.3 129.5,714.3" fill="#51d689" stroke="#5a5a5a" stroke-width="0.3"/>
<polygon points="30.0,712.5 67.7,712.5 67.7,701.2 30.0,701.2" fill="#5167d6" stroke="#5a5a5a" stroke-width="0.3"/>
<polygon points="69.4,712.5 107.1,712.5 107.1,701.2 69.4,701.2" fill="#5167d6" stroke="#5a5a5a" stroke-width="0.3"/>
<polygon points="108.9,712.5 146.5,712.5 146.5,701.2 108.9,701.2" fill="#5167d6" stroke="#5a5a5a" stroke-width="0.3"/>
<polygon points="148.3,712.5 156.2,712.5 156.2,701.2 148.3,701.2" fill="#d651d0" stroke="#5a5a5a" stroke-width="0.3"/>
<polygon points="30.0,699.4 48.8,699.4 48.8,688.0 30.0,688.0" fill="#d65188" stroke="#5a5a5a" stroke-width="0.3"/>
<polygon points="50.6,699.4 88.3,699.4 88.3,688.0 50.6,688.0" fill="#5167d6" stroke="#5a5a5a" stroke-width="0.3"/>
<polygon points="90.0,699.4 127.7,699.4 127.7,688.0 90.0,688.0" fill="#5167d6" stroke="#5a5a5a" stroke-width="0.3"/>
<polygon points="129.5,699.4 156.2,699.4 156.2,688.0 129.5,688.0" fill="#51d689" stroke="#5a5a5a" stroke-width="0.3"/>
<polygon points="30.0,686.3 67.7,686.3 67.7,674.9 30.0,674.9" fill="#5167d6" stroke="#5a5a5a" stroke-width="0.3"/>
<polygon points="69.4,686.3 107.1,686.3 107.1,674.9 69.4,674.9" fill="#5167d6" stroke="#5a5a5a" stroke-width="0.3"/>
<polygon points="108.9,686.3 146.5,686.3 146.5,674.9 108.9,674.9" fill="#5167d6" stroke="#5a5a5a" stroke-width="0.3"/>
<polygon points="148.3,686.3 156.2,686.3 156.2,674.9 148.3,674.9" fill="#d651d0" stroke="#5a5a5a" stroke-width="0.3"/>
<polygon points="30.0,673.1 48.8,673.1 48.8,661.7 30.0,661.7" fill="#d65188" stroke="#5a5a5a" stroke-width="0.3"/>
<polygon points="50.6,673.1 88.3,673.1 88.3,661.7 50.6,661.7" fill="#5167d6" stroke="#5a5a5a" stroke-width="0.3"/>
<polygon points="90.0,673.1 127.7,673.1 127.7,661.7 90.0,661.7" fill="#5167d6" stroke="#5a5a5a" stroke-width="0.3"/>
<polygon points="129.5,673.1 156.2,673.1 156.2,661.7 129.5,661.7" fill="#51d689" stroke="#5a5a5a" stroke-width="0.3"/>
<polygon points="30.0,660.0 67.7,660.0 67.7,648.6 30.0,648.6" fill="#5167d6" stroke="#5a5a5a" stroke-width="0.3"/>
<polygon points="69.4,660.0 107.1,660.0 107.1,648.6 69.4,648.6" fill="#5167d6" stroke="#5a5a5a" stroke-width="0.3"/>
<polygon points="108.9,660.0 146.5,660.0 146.5,648.6 108.9,648.6" fill="#5167d6" stroke="#5a5a5a" stroke-width="0.3"/>
<polygon points="148.3,660.0 156.2,660.0 156.2,648.6 148.3,648.6" fill="#d651d0" stroke="#5a5a5a" stroke-width="0.3"/>
<polygon points="30.0,646.8 48.8,646.8 48.8,635.4 30.0,635.4" fill="#d65188" stroke="#5a5a5a" stroke-width="0.3"/>
<polygon points="50.6,646.8 88.3,646.8 88.3,635.4 50.6,635.4" fill="#5167d6" stroke="#5a5a5a" stroke-width="0.3"/>
<polygon points="90.0,646.8 127.7,646.8 127.7,635.4 90.0,635.4" fill="#5167d6" stroke="#5a5a5a" stroke-width="0.3"/>
<polygon points="129.5,646.8 156.2,646.8 156.2,635.4 129.5,635.4" fill="#51d689" stroke="#5a5a5a" stroke-width="0.3"/>
<polygon points="30.0,633.7 67.7,633.7 67.7,622.3 30.0,622.3" fill="#5167d6" stroke="#5a5a5a" stroke-width="0.3"/>
<polygon points="69.4,633.7 107.1,633.7 107.1,622.3 69.4,622.3" fill="#5167d6" stroke="#5a5a5a" stroke-width="0.3"/>
<polygon points="108.9,633.7 146.5,633.7 146.5,622.3 108.9,622.3" fill="#5167d6" stroke="#5a5a5a" stroke-width="0.3"/>
<polygon points="148.3,633.7 156.2,633.7 156.2,622.3 148.3,622.3" fill="#d651d0" stroke="#5a5a5a" stroke-width="0.3"/>
<polygon points="30.0,620.5 48.8,620.5 48.8,609.1 30.0,609.1" fill="#d65188" stroke="#5a5a5a" stroke-width="0.3"/>
<polygon points="50.6,620.5 88.3,620.5 88.3,609.1 50.6,609.1" fill="#5167d6" stroke="#5a5a5a" stroke-width="0.3"/>
<polygon points="90.0,620.5 127.7,620.5 127.7,609.1 90.0,609.1" fill="#5167d6" stroke="#5a5a5a" stroke-width="0.3"/>
<polygon points="129.5,620.5 156.2,620.5 156.2,609.1 129.5,609.1" fill="#51d689" stroke="#5a5a5a" stroke-width="0.3"/>
<polygon points="30.0,607.4 67.7,607.4 67.7,596.0 30.0,596.0" fill="#5167d6" stroke="#5a5a5a" stroke-width="0.3"/>
<polygon points="69.4,607.4 107.1,607.4 107.1,596.0 69.4,596.0" fill="#5167d6" stroke="#5a5a5a" stroke-width="0.3"/>
<polygon points="108.9,607.4 146.5,607.4 146.5,596.0 108.9,596.0" fill="#5167d6" stroke="#5a5a5a" stroke-width="0.3"/>
<polygon points="148.3,607.4 156.2,607.4 156.2,596.0 148.3,596.0" fill="#d651d0" stroke="#5a5a5a" stroke-width="0.3"/>
<polygon points="30.0,594.2 48.8,594.2 48.8,582.9 30.0,582.9" fill="#d65188" stroke="#5a5a5a" stroke-width="0.3"/>
<polygon points="50.6,594.2 88.3,594.2 88.3,582.9 50.6,582.9" fill="#5167d6" stroke="#5a5a5a" stroke-width="0.3"/>
<polygon points="90.0,594.2 127.7,594.2 127.7,582.9 90.0,582.9" fill="#5167d6" stroke="#5a5a5a" stroke-width="0.3"/>
<polygon points="129.5,594.2 156.2,594.2 156.2,582.9 129.5,582.9" fill="#51d689" stroke="#5a5a5a" stroke-width="0.3"/>
<polygon points="30.0,581.1 67.7,581.1 67.7,569.7 30.0,569.7" fill="#5167d6" stroke="#5a5a5a" stroke-width="0.3"/>
<polygon points="69.4,581.1 107.1,581.1 107.1,569.7 69.4,569.7" fill="#5167d6" stroke="#5a5a5a" stroke-width="0.3"/>
<polygon points="108.9,581.1 146.5,581.1 146.5,569.7 108.9,569.7" fill="#5167d6" stroke="#5a5a5a" stroke-width="0.3"/>
<polygon points="148.3,581.1 156.2,581.1 156.2,569.7 148.3,569.7" fill="#d651d0" stroke="#5a5a5a" stroke-width="0.3"/>
<polygon points="30.0,568.0 48.8,568.0 48.8,556.6 30.0,556.6" fill="#d65188" stroke="#5a5a5a" stroke-width="0.3"/>
<polygon points="50.6,568.0 88.3,568.0 88.3,556.6 50.6,556.6" fill="#5167d6" stroke="#5a5a5a" stroke-width="0.3"/>
<polygon points="90.0,568.0 127.7,568.0 127.7,556.6 90.0,556.6" fill="#5167d6" stroke="#5a5a5a" stroke-width="0.3"/>
<polygon points="129.5,568.0 156.2,568.0 156.2,556.6 129.5,556.6" fill="#51d689" stroke="#5a5a5a" stroke-width="0.3"/>
<polygon points="30.0,554.8 67.7,554.8 67.7,543.4 30.0,543.4" fill="#5167d6" stroke="#5a5a5a" stroke-width="0.3"/>
<polygon points="69.4,554.8 107.1,554.8 107.1,543.4 69.4,543.4" fill="#5167d6" stroke="#5a5a5a" stroke-width="0.3"/>
<polygon points="108.9,554.8 146.5,554.8 146.5,543.4 108.9,543.4" fill="#5167d6" stroke="#5a5a5a" stroke-width="0.3"/>
<polygon points="148.3,554.8 156.2,554.8 156.2,543.4 148.3,543.4" fill="#d651d0" stroke="#5a5a5a" stroke-width="0.3"/>
<polygon points="30.0,541.7 48.8,541.7 48.8,530.3 30.0,530.3" fill="#d65188" stroke="#5a5a5a" stroke-width="0.3"/>
<polygon points="50.6,541.7 88.3,541.7 88.3,530.3 50.6,530.3" fill="#5167d6" stroke="#5a5a5a" stroke-width="0.3"/>
<polygon points="90.0,541.7 127.7,541.7 127.7,530.3 90.0,530.3" fill="#5167d6" stroke="#5a5a5a" stroke-width="0.3"/>
<polygon points="129.5,541.7 156.2,541.7 156.2,530.3 129.5,530.3" fill="#51d689" stroke="#5a5a5a" stroke-width="0.3"/>
<polygon points="30.0,528.5 67.7,528.5 67.7,517.1 30.0,517.1" fill="#5167d6" stroke="#5a5a5a" stroke-width="0.3"/>
<polygon points="69.4,528.5 107.1,528.5 107.1,517.1 69.4,517.1" fill="#5167d6" stroke="#5a5a5a" stroke-width="0.3"/>
<polygon points="108.9,528.5 146.5,528.5 146.5,517.1 108.9,517.1" fill="#5167d6" stroke="#5a5a5a" stroke-width="0.3"/>
<polygon points="148.3,528.5 156.2,528.5 156.2,517.1 148.3,517.1" fill="#d651d0" stroke="#5a5a5a" stroke-width="0.3"/>
<polygon points="30.0,515.4 48.8,515.4 48.8,504.0 30.0,504.0" fill="#d65188" stroke="#5a5a5a" stroke-width="0.3"/>
<polygon points="50.6,515.4 88.3,515.4 88.3,504.0 50.6,504.0" fill="#5167d6" stroke="#5a5a5a" stroke-width="0.3"/>
<polygon points="90.0,515.4 127.7,515.4 127.7,504.0 90.0,504.0" fill="#5167d6" stroke="#5a5a5a" stroke-width="0.3"/>
<polygon points="129.5,515.4 156.2,515.4 156.2,504.0 129.5,504.0" fill="#51d689" stroke="#5a5a5a" stroke-width="0.3"/>
<polygon points="30.0,502.2 67.7,502.2 67.7,490.8 30.0,490.8" fill="#5167d6" stroke="#5a5a5a" stroke-width="0.3"/>
<polygon points="69.4,502.2 107.1,502.2 107.1,490.8 69.4,490.8" fill="#5167d6" stroke="#5a5a5a" stroke-width="0.3"/>
<polygon points="108.9,502.2 146.5,502.2 146.5,490.8 108.9,490.8" fill="#5167d6" stroke="#5a5a5a" stroke-width="0.3"/>
<polygon points="148.3,502.2 156.2,502.2 156.2,490.8 148.3,490.8" fill="#d651d0" stroke="#5a5a5a" stroke-width="0.3"/>
<polygon points="30.0,489.1 48.8,489.1 48.8,477.7 30.0,477.7" fill="#d65188" stroke="#5a5a5a" stroke-width="0.3"/>
<polygon points="50.6,489.1 88.3,489.1 88.3,477.7 50.6,477.7" fill="#5167d6" stroke="#5a5a5a" stroke-width="0.3"/>
<polygon points="90.0,489.1 127.7,489.1 127.7,477.7 90.0,477.7" fill="#5167d6" stroke="#5a5a5a" stroke-width="0.3"/>
<polygon points="129.5,489.1 156.2,489.1 156.2,477.7 129.5,477.7" fill="#51d689" stroke="#5a5a5a" stroke-width="0.3"/>
<polygon points="30.0,475.9 67.7,475.9 67.7,464.6 30.0,464.6" fill="#5167d6" stroke="#5a5a5a" stroke-width="0.3"/>
<polygon points="69.4,475.9 107.1,475.9 107.1,464.6 69.4,464.6" fill="#5167d6" stroke="#5a5a5a" stroke-width="0.3"/>
<polygon points="108.9,475.9 146.5,475.9 146.5,464.6 108.9,464.6" fill="#5167d6" stroke="#5a5a5a" stroke-width="0.3"/>
<polygon points="148.3,475.9 156.2,475.9 156.2,464.6 148.3,464.6" fill="#d651d0" stroke="#5a5a5a" stroke-width="0.3"/>
<polygon points="30.0,462.8 48.8,462.8 48.8,451.4 30.0,451.4" fill="#d65188" stroke="#5a5a5a" stroke-width="0.3"/>
<polygon points="50.6,462.8 88.3,462.8 88.3,451.4 50.6,451.4" fill="#5167d6" stroke="#5a5a5a" stroke-width="0.3"/>
<polygon points="90.0,462.8 127.7,462.8 127.7,451.4 90.0,451.4" fill="#5167d6" stroke="#5a5a5a" stroke-width="0.3"/>
<polygon points="129.5,462.8 156.2,462.8 156.2,451.4 129.5,451.4" fill="#51d689" stroke="#5a5a5a" stroke-width="0.3"/>
<polygon points="30.0,449.7 67.7,449.7 67.7,438.3 30.0,438.3" fill="#5167d6" stroke="#5a5a5a" stroke-width="0.3"/>
<polygon points="69.4,449.7 107.1,449.7 107.1,438.3 69.4,438.3" fill="#5167d6" stroke="#5a5a5a" stroke-width="0.3"/>
<polygon points="108.9,449.7 146.5,449.7 146.5,438.3 108.9,438.3" fill="#5167d6" stroke="#5a5a5a" stroke-width="0.3"/>
<polygon points="148.3,449.7 156.2,449.7 156.2,438.3 148.3,438.3" fill="#d651d0" stroke="#5a5a5a" stroke-width="0.3"/>
<polygon points="30.0,436.5 48.8,436.5 48.8,425.1 30.0,425.1" fill="#d65188" stroke="#5a5a5a" stroke-width="0.3"/>
<polygon points="50.6,436.5 88.3,436.5 88.3,425.1 50.6,425.1" fill="#5167d6" stroke="#5a5a5a" stroke-width="0.3"/>
<polygon points="90.0,436.5 127.7,436.5 127.7,425.1 90.0,425.1" fill="#5167d6" stroke="#5a5a5a" stroke-width="0.3"/>
<polygon points="129.5,436.5 156.2,436.5 156.2,425.1 129.5,425.1" fill="#51d689" stroke="#5a5a5a" stroke-width="0.3"/>
<polygon points="30.0,423.4 67.7,423.4 67.7,412.0 30.0,412.0" fill="#5167d6" stroke="#5a5a5a" stroke-width="0.3"/>
<polygon points="69.4,423.4 107.1,423.4 107.1,412.0 69.4,412.0" fill="#5167d6" stroke="#5a5a5a" stroke-width="0.3"/>
<polygon points="108.9,423.4 146.5,423.4 146.5,412.0 108.9,412.0" fill="#5167d6" stroke="#5a5a5a" stroke-width="0.3"/>
<polygon points="148.3,423.4 156.2,423.4 156.2,412.0 148.3,412.0" fill="#d651d0" stroke="#5a5a5a" stroke-width="0.3"/>
<polygon points="30.0,410.2 48.8,410.2 48.8,398.8 30.0,398.8" fill="#d65188" stroke="#5a5a5a" stroke-width="0.3"/>
<polygon points="50.6,410.2 88.3,410.2 88.3,398.8 50.6,398.8" fill="#5167d6" stroke="#5a5a5a" stroke-width="0.3"/>
<polygon points="90.0,410.2 127.7,410.2 127.7,398.8 90.0,398.8" fill="#5167d6" stroke="#5a5a5a" stroke-width="0.3"/>
<polygon points="129.5,410.2 156.2,410.2 156.2,398.8 129.5,398.8" fill="#51d689" stroke="#5a5a5a" stroke-width="0.3"/>
<polygon points="30.0,397.1 67.7,397.1 67.7,385.7 30.0,385.7" fill="#5167d6" stroke="#5a5a5a" stroke-width="0.3"/>
<polygon points="69.4,397.1 107.1,397.1 107.1,385.7 69.4,385.7" fill="#5167d6" stroke="#5a5a5a" stroke-width="0.3"/>
<polygon points="108.9,397.1 146.5,397.1 146.5,385.7 108.9,385.7" fill="#5167d6" stroke="#5a5a5a" stroke-width="0.3"/>
<polygon points="148.3,397.1 156.2,397.1 156.2,385.7 148.3,385.7" fill="#d651d0" stroke="#5a5a5a" stroke-width="0.3"/>
<polygon points="30.0,383.9 48.8,383.9 48.8,372.5 30.0,372.5" fill="#d65188" stroke="#5a5a5a" stroke-width="0.3"/>
<polygon points="50.6,383.9 88.3,383.9 88.3,372.5 50.6,372.5" fill="#5167d6" stroke="#5a5a5a" stroke-width="0.3"/>
<polygon points="90.0,383.9 127.7,383.9 127.7,372.5 90.0,372.5" fill="#5167d6" stroke="#5a5a5a" stroke-width="0.3"/>
<polygon points="129.5,383.9 156.2,383.9 156.2,372.5 129.5,372.5" fill="#51d689" stroke="#5a5a5a" stroke-width="0.3"/>
<polygon points="30.0,370.8 67.7,370.8 67.7,359.4 30.0,359.4" fill="#5167d6" stroke="#5a5a5a" stroke-width="0.3"/>
<polygon points="69.4,370.8 107.1,370.8 107.1,359.4 69.4,359.4" fill="#5167d6" stroke="#5a5a5a" stroke-width="0.3"/>
<polygon points="108.9,370.8 146.5,370.8 146.5,359.4 108.9,359.4" fill="#5167d6" stroke="#5a5a5a" stroke-width="0.3"/>
<polygon points="148.3,370.8 156.2,370.8 156.2,359.4 148.3,359.4" fill="#d651d0" stroke="#5a5a5a" stroke-width="0.3"/>
<polygon points="30.0,357.6 48.8,357.6 48.8,346.3 30.0,346.3" fill="#d65188" stroke="#5a5a5a" stroke-width="0.3"/>
<polygon points="50.6,357.6 88.3,357.6 88.3,346.3 50.6,346.3" fill="#5167d6" stroke="#5a5a5a" stroke-width="0.3"/>
<polygon points="90.0,357.6 127.7,357.6 127.7,346.3 90.0,346.3" fill="#5167d6" stroke="#5a5a5a" stroke-width="0.3"/>
<polygon points="129.5,357.6 156.2,357.6 156.2,346.3 129.5,346.3" fill="#51d689" stroke="#5a5a5a" stroke-width="0.3"/>
<polygon points="30.0,344.5 67.7,344.5 67.7,333.1 30.0,333.1" fill="#5167d6" stroke="#5a5a5a" stroke-width="0.3"/>
<polygon points="69.4,344.5 107.1,344.5 107.1,333.1 69.4,333.1" fill="#5167d6" stroke="#5a5a5a" stroke-width="0.3"/>
<polygon points="108.9,344.5 146.5,344.5 146.5,333.1 108.9,333.1" fill="#5167d6" stroke="#5a5a5a" stroke-width="0.3"/>
<polygon points="148.3,344.5 156.2,344.5 156.2,333.1 148.3,333.1" fill="#d651d0" stroke="#5a5a5a" stroke-width="0.3"/>
<polygon points="30.0,331.4 48.8,331.4 48.8,320.0 30.0,320.0" fill="#d65188" stroke="#5a5a5a" stroke-width="0.3"/>
<polygon points="50.6,331.4 88.3,331.4 88.3,320.0 50.6,320.0" fill="#5167d6" stroke="#5a5a5a" stroke-width="0.3"/>
<polygon points="90.0,331.4 127.7,331.4 127.7,320.0 90.0,320.0" fill="#5167d6" stroke="#5a5a5a" stroke-width="0.3"/>
<polygon points="129.5,331.4 156.2,331.4 156.2,320.0 129.5,320.0" fill="#51d689" stroke="#5a5a5a" stroke-width="0.3"/>
<polygon points="30.0,318.2 67.7,318.2 67.7,306.8 30.0,306.8" fill="#5167d6" stroke="#5a5a5a" stroke-width="0.3"/>
<polygon points="69.4,318.2 107.1,318.2 107.1,306.8 69.4,306.8" fill="#5167d6" stroke="#5a5a5a" stroke-width="0.3"/>
<polygon points="108.9,318.2 146.5,318.2 146.5,306.8 108.9,306.8" fill="#5167d6" stroke="#5a5a5a" stroke-width="0.3"/>
<polygon points="148.3,318.2 156.2,318.2 156.2,306.8 148.3,306.8" fill="#d651d0" stroke="#5a5a5a" stroke-width="0.3"/>
<polygon points="30.0,305.1 48.8,305.1 48.8,293.7 30.0,293.7" fill="#d65188" stroke="#5a5a5a" stroke-width="0.3"/>
<polygon points="50.6,305.1 88.3,305.1 88.3,293.7 50.6,293.7" fill="#5167d6" stroke="#5a5a5a" stroke-width="0.3"/>
<polygon points="90.0,305.1 127.7,305.1 127.7,293.7 90.0,293.7" fill="#5167d6" stroke="#5a5a5a" stroke-width="0.3"/>
<polygon points="129.5,305.1 156.2,305.1 156.2,293.7 129.5,293.7" fill="#51d689" stroke="#5a5a5a" stroke-width="0.3"/>
<polygon points="30.0,291.9 67.7,291.9 67.7,280.5 30.0,280.5" fill="#5167d6" stroke="#5a5a5a" stroke-width="0.3"/>
<polygon points="69.4,291.9 107.1,291.9 107.1,280.5 69.4,280.5" fill="#5167d6" stroke="#5a5a5a" stroke-width="0.3"/>
<polygon points="108.9,291.9 146.5,291.9 146.5,280.5 108.9,280.5" fill="#5167d6" stroke="#5a5a5a" stroke-width="0.3"/>
<polygon points="148.3,291.9 156.2,291.9 156.2,280.5 148.3,280.5" fill="#d651d0" stroke="#5a5a5a" stroke-width="0.3"/>
<polygon points="30.0,278.8 48.8,278.8 48.8,267.4 30.0,267.4" fill="#d65188" stroke="#5a5a5a" stroke-width="0.3"/>
<polygon points="50.6,278.8 88.3,278.8 88.3,267.4 50.6,267.4" fill="#5167d6" stroke="#5a5a5a" stroke-width="0.3"/>
<polygon points="90.0,278.8 127.7,278.8 127.7,267.4 90.0,267.4" fill="#5167d6" stroke="#5a5a5a" stroke-width="0.3"/>
<polygon points="129.5,278.8 156.2,278.8 156.2,267.4 129.5,267.4" fill="#51d689" stroke="#5a5a5a" stroke-width="0.3"/>
<polygon points="30.0,265.6 67.7,265.6 67.7,254.2 30.0,254.2" fill="#5167d6" stroke="#5a5a5a" stroke-width="0.3"/>
<polygon points="69.4,265.6 107.1,265.6 107.1,254.2 69.4,254.2" fill="#5167d6" stroke="#5a5a5a" stroke-width="0.3"/>
<polygon points="108.9,265.6 146.5,265.6 146.5,254.2 108.9,254.2" fill="#5167d6" stroke="#5a5a5a" stroke-width="0.3"/>
<polygon points="148.3,265.6 156.2,265.6 156.2,254.2 148.3,254.2" fill="#d651d0" stroke="#5a5a5a" stroke-width="0.3"/>
<polygon points="30.0,252.5 48.8,252.5 48.8,241.1 30.0,241.1" fill="#d65188" stroke="#5a5a5a" stroke-width="0.3"/>
<polygon points="50.6,252.5 88.3,252.5 88.3,241.1 50.6,241.1" fill="#5167d6" stroke="#5a5a5a" stroke-width="0.3"/>
<polygon points="90.0,252.5 127.7,252.5 127.7,241.1 90.0,241.1" fill="#5167d6" stroke="#5a5a5a" stroke-width="0.3"/>
<polygon points="129.5,252.5 156.2,252.5 156.2,241.1 129.5,241.1" fill="#51d689" stroke="#5a5a5a" stroke-width="0.3"/>
<polygon points="30.0,239.4 67.7,239.4 67.7,228.0 30.0,228.0" fill="#5167d6" stroke="#5a5a5a" stroke-width="0.3"/>
<polygon points="69.4,239.4 107.1,239.4 107.1,228.0 69.4,228.0" fill="#5167d6" stroke="#5a5a5a" stroke-width="0.3"/>
<polygon points="108.9,239.4 146.5,239.4 146.5,228.0 108.9,228.0" fill="#5167d6" stroke="#5a5a5a" stroke-width="0.3"/>
<polygon points="148.3,239.4 156.2,239.4 156.2,228.0 148.3,228.0" fill="#d651d0" stroke="#5a5a5a" stroke-width="0.3"/>
<polygon points="30.0,226.2 48.8,226.2 48.8,214.8 30.0,214.8" fill="#d65188" stroke="#5a5a5a" stroke-width="0.3"/>
<polygon points="50.6,226.2 88.3,226.2 88.3,214.8 50.6,214.8" fill="#5167d6" stroke="#5a5a5a" stroke-width="0.3"/>
<polygon points="90.0,226.2 127.7,226.2 127.7,214.8 90.0,214.8" fill="#5167d6" stroke="#5a5a5a" stroke-width="0.3"/>
<polygon points="129.5,226.2 156.2,226.2 156.2,214.8 129.5,214.8" fill="#51d689" stroke="#5a5a5a" stroke-width="0.3"/>
<polygon points="30.0,213.1 67.7,213.1 67.7,201.7 30.0,201.7" fill="#5167d6" stroke="#5a5a5a" stroke-width="0.3"/>
<polygon points="69.4,213.1 107.1,213.1 107.1,201.7 69.4,201.7" fill="#5167d6" stroke="#5a5a5a" stroke-width="0.3"/>
<polygon points="108.9,213.1 146.5,213.1 146.5,201.7 108.9,201.7" fill="#5167d6" stroke="#5a5a5a" stroke-width="0.3"/>
<polygon points="148.3,213.1 156.2,213.1 156.2,201.7 148.3,201.7" fill="#d651d0" stroke="#5a5a5a" stroke-width="0.3"/>
<polygon points="30.0,199.9 48.8,199.9 48.8,188.5 30.0,188.5" fill="#d65188" stroke="#5a5a5a" stroke-width="0.3"/>
<polygon points="50.6,199.9 88.3,199.9 88.3,188.5 50.6,188.5" fill="#5167d6" stroke="#5a5a5a" stroke-width="0.3"/>
<polygon points="90.0,199.9 127.7,199.9 127.7,188.5 90.0,188.5" fill="#5167d6" stroke="#5a5a5a" stroke-width="0.3"/>
<polygon points="129.5,199.9 156.2,199.9 156.2,188.5 129.5,188.5" fill="#51d689" stroke="#5a5a5a" stroke-width="0.3"/>
<polygon points="30.0,186.8 67.7,186.8 67.7,175.4 30.0,175.4" fill="#5167d6" stroke="#5a5a5a" stroke-width="0.3"/>
<polygon points="69.4,186.8 107.1,186.8 107.1,175.4 69.4,175.4" fill="#5167d6" stroke="#5a5a5a" stroke-width="0.3"/>
<polygon points="108.9,186.8 146.5,186.8 146.5,175.4 108.9,175.4" fill="#5167d6" stroke="#5a5a5a" stroke-width="0.3"/>
<polygon points="148.3,186.8 156.2,186.8 156.2,175.4 148.3,175.4" fill="#d651d0" stroke="#5a5a5a" stroke-width="0.3"/>
<polygon points="30.0,173.6 48.8,173.6 48.8,162.2 30.0,162.2" fill="#d65188" stroke="#5a5a5a" stroke-width="0.3"/>
<polygon points="50.6,173.6 88.3,173.6 88.3,162.2 50.6,162.2" fill="#5167d6" stroke="#5a5a5a" stroke-width="0.3"/>
<polygon points="90.0,173.6 127.7,173.6 127.7,162.2 90.0,162.2" fill="#5167d6" stroke="#5a5a5a" stroke-width="0.3"/>
<polygon points="129.5,173.6 156.2,173.6 156.2,162.2 129.5,162.2" fill="#51d689" stroke="#5a5a5a" stroke-width="0.3"/>
<polygon points="30.0,160.5 67.7,160.5 67.7,149.1 30.0,149.1" fill="#5167d6" stroke="#5a5a5a" stroke-width="0.3"/>
<polygon points="69.4,160.5 107.1,160.5 107.1,149.1 69.4,149.1" fill="#5167d6" stroke="#5a5a5a" stroke-width="0.3"/>
<polygon points="108.9,160.5 146.5,160.5 146.5,149.1 108.9,149.1" fill="#5167d6" stroke="#5a5a5a" stroke-width="0.3"/>
<polygon points="148.3,160.5 156.2,160.5 156.2,149.1 148.3,149.1" fill="#d651d0" stroke="#5a5a5a" stroke-width="0.3"/>
<polygon points="30.0,147.3 48.8,147.3 48.8,135.9 30.0,135.9" fill="#d65188" stroke="#5a5a5a" stroke-width="0.3"/>
<polygon points="50.6,147.3 88.3,147.3 88.3,135.9 50.6,135.9" fill="#5167d6" stroke="#5a5a5a" stroke-width="0.3"/>
<polygon points="90.0,147.3 127.7,147.3 127.7,135.9 90.0,135.9" fill="#5167d6" stroke="#5a5a5a" stroke-width="0.3"/>
<polygon points="129.5,147.3 156.2,147.3 156.2,135.9 129.5,135.9" fill="#51d689" stroke="#5a5a5a" stroke-width="0.3"/>
<polygon points="30.0,134.2 67.7,134.2 67.7,122.8 30.0,122.8" fill="#5167d6" stroke="#5a5a5a" stroke-width="0.3"/>
<polygon points="69.4,134.2 107.1,134.2 107.1,122.8 69.4,122.8" fill="#5167d6" stroke="#5a5a5a" stroke-width="0.3"/>
<polygon points="108.9,134.2 146.5,134.2 146.5,122.8 108.9,122.8" fill="#5167d6" stroke="#5a5a5a" stroke-width="0.3"/>
<polygon points="148.3,134.2 156.2,134.2 156.2,122.8 148.3,122.8" fill="#d651d0" stroke="#5a5a5a" stroke-width="0.3"/>
<polygon points="30.0,121.1 48.8,121.1 48.8,109.7 30.0,109.7" fill="#d65188" stroke="#5a5a5a" stroke-width="0.3"/>
<polygon points="50.6,121.1 88.3,121.1 88.3,109.7 50.6,109.7" fill="#5167d6" stroke="#5a5a5a" stroke-width="0.3"/>
<polygon points="90.0,121.1 127.7,121.1 127.7,109.7 90.0,109.7" fill="#5167d6" stroke="#5a5a5a" stroke-width="0.3"/>
<polygon points="129.5,121.1 156.2,121.1 156.2,109.7 129.5,109.7" fill="#51d689" stroke="#5a5a5a" stroke-width="0.3"/>
<polygon points="30.0,107.9 67.7,107.9 67.7,96.5 30.0,96.5" fill="#5167d6" stroke="#5a5a5a" stroke-width="0.3"/>
<polygon points="69.4,107.9 107.1,107.9 107.1,96.5 69.4,96.5" fill="#5167d6" stroke="#5a5a5a" stroke-width="0.3"/>
<polygon points="108.9,107.9 146.5,107.9 146.5,96.5 108.9,96.5" fill="#5167d6" stroke="#5a5a5a" stroke-width="0.3"/>
<polygon points="148.3,107.9 156.2,107.9 156.2,96.5 148.3,96.5" fill="#d651d0" stroke="#5a5a5a" stroke-width="0.3"/>
<polygon points="30.0,94.8 48.8,94.8 48.8,86.0 30.0,86.0" fill="#6851d6" stroke="#5a5a5a" stroke-width="0.3"/>
<polygon points="50.6,94.8 88.3,94.8 88.3,86.0 50.6,86.0" fill="#d66251" stroke="#5a5a5a" stroke-width="0.3"/>
<polygon points="90.0,94.8 127.7,94.8 127.7,86.0 90.0,86.0" fill="#d66251" stroke="#5a5a5a" stroke-width="0.3"/>
<polygon points="129.5,94.8 156.2,94.8 156.2,86.0 129.5,86.0" fill="#51afd6" stroke="#5a5a5a" stroke-width="0.3"/>
<text x="180" y="92" font-size="13" font-weight="bold" fill="#111">Type ID 图例 Legend (this face)</text>
<rect x="180" y="104" width="15" height="11" fill="#5167d6" stroke="#555" stroke-width="0.4"/>
<text x="201" y="114" font-size="11.5" fill="#222">B21  215×65  ×160</text>
<rect x="180" y="123" width="15" height="11" fill="#d66251" stroke="#555" stroke-width="0.4"/>
<text x="201" y="133" font-size="11.5" fill="#222">B22  215×48  ×2</text>
<rect x="180" y="142" width="15" height="11" fill="#51d689" stroke="#555" stroke-width="0.4"/>
<text x="201" y="152" font-size="11.5" fill="#222">B23  152×65  ×32</text>
<rect x="180" y="161" width="15" height="11" fill="#51afd6" stroke="#555" stroke-width="0.4"/>
<text x="201" y="171" font-size="11.5" fill="#222">B26  152×50  ×1</text>
<rect x="180" y="180" width="15" height="11" fill="#d65188" stroke="#555" stroke-width="0.4"/>
<text x="201" y="190" font-size="11.5" fill="#222">B27  108×65  ×32</text>
<rect x="180" y="199" width="15" height="11" fill="#6851d6" stroke="#555" stroke-width="0.4"/>
<text x="201" y="209" font-size="11.5" fill="#222">B29  108×50  ×1</text>
<rect x="180" y="218" width="15" height="11" fill="#d651d0" stroke="#555" stroke-width="0.4"/>
<text x="201" y="228" font-size="11.5" fill="#222">B32  45×65  ×32</text>
<rect x="30" y="970.0" width="43.8" height="6" fill="#111"/>
<rect x="73.8" y="970.0" width="43.8" height="6" fill="#999"/>
<text x="30" y="966.0" font-size="11" fill="#111">0</text>
<text x="117.6" y="966.0" font-size="11" fill="#111">500 mm</text>
</svg>