<svg xmlns="http://www.w3.org/2000/svg" viewBox="0 0 309 222" width="309" height="222"><rect width="309" height="222" fill="#ffffff"/><rect x="10.0" y="10.0" width="12.0" height="12.0" fill="#2b2e33" stroke="none"/><text x="28.0" y="20.0" font-family="ui-monospace,'SFMono-Regular',Menlo,Consolas,monospace" font-size="12" fill="#2b2e33" text-anchor="start" font-weight="600">B25</text><text x="297.4" y="20.0" font-family="ui-monospace,'SFMono-Regular',Menlo,Consolas,monospace" font-size="9.5" fill="#6b7280" text-anchor="end">数量 Qty 1</text><text x="10.0" y="36.0" font-family="ui-monospace,'SFMono-Regular',Menlo,Consolas,monospace" font-size="8.5" fill="#6b7280" text-anchor="start">Black · cut · cut flat</text><polygon points="34.0,168.0 233.4,168.0 233.4,64.0 34.0,64.0" fill="#e2e5ea" stroke="#2b2e33" stroke-width="1.2" stroke-linejoin="round"/><line x1="34.0" y1="170.0" x2="34.0" y2="185.0" stroke="#6b7280" stroke-width="0.5"/><line x1="233.4" y1="170.0" x2="233.4" y2="185.0" stroke="#6b7280" stroke-width="0.5"/><line x1="34.0" y1="182.0" x2="233.4" y2="182.0" stroke="#3a3f45" stroke-width="0.7"/><line x1="31.9" y1="184.1" x2="36.1" y2="179.9" stroke="#3a3f45" stroke-width="1"/><line x1="231.2" y1="184.1" x2="235.5" y2="179.9" stroke="#3a3f45" stroke-width="1"/><text x="133.7" y="179.0" font-family="ui-monospace,'SFMono-Regular',Menlo,Consolas,monospace" font-size="9" fill="#3a3f45" text-anchor="middle">124.6</text><line x1="235.4" y1="64.0" x2="248.4" y2="64.0" stroke="#6b7280" stroke-width="0.5"/><line x1="235.4" y1="168.0" x2="248.4" y2="168.0" stroke="#6b7280" stroke-width="0.5"/><line x1="245.4" y1="64.0" x2="245.4" y2="168.0" stroke="#3a3f45" stroke-width="0.7"/><line x1="243.2" y1="61.9" x2="247.5" y2="66.1" stroke="#3a3f45" stroke-width="1"/><line x1="243.2" y1="165.9" x2="247.5" y2="170.1" stroke="#3a3f45" stroke-width="1"/><text x="249.4" y="116.0" font-family="ui-monospace,'SFMono-Regular',Menlo,Consolas,monospace" font-size="9" fill="#3a3f45" text-anchor="start" dominant-baseline="middle">65</text></svg>