<svg xmlns="http://www.w3.org/2000/svg" viewBox="0 0 377 222" width="377" height="222"><rect width="377" height="222" fill="#ffffff"/><rect x="10.0" y="10.0" width="12.0" height="12.0" fill="#2b2e33" stroke="none"/><text x="28.0" y="20.0" font-family="ui-monospace,'SFMono-Regular',Menlo,Consolas,monospace" font-size="12" fill="#2b2e33" text-anchor="start" font-weight="600">B39</text><text x="365.0" y="20.0" font-family="ui-monospace,'SFMono-Regular',Menlo,Consolas,monospace" font-size="9.5" fill="#6b7280" text-anchor="end">数量 Qty 5</text><text x="10.0" y="36.0" font-family="ui-monospace,'SFMono-Regular',Menlo,Consolas,monospace" font-size="8.5" fill="#6b7280" text-anchor="start">Black · angled · right-trapezoid</text><polygon points="34.0,168.0 301.0,168.0 177.0,64.0 34.0,64.0" fill="#e2e5ea" stroke="#2b2e33" stroke-width="1.2" stroke-linejoin="round"/><line x1="34.0" y1="170.0" x2="34.0" y2="185.0" stroke="#6b7280" stroke-width="0.5"/><line x1="301.0" y1="170.0" x2="301.0" y2="185.0" stroke="#6b7280" stroke-width="0.5"/><line x1="34.0" y1="182.0" x2="301.0" y2="182.0" stroke="#3a3f45" stroke-width="0.7"/><line x1="31.9" y1="184.1" x2="36.1" y2="179.9" stroke="#3a3f45" stroke-width="1"/><line x1="298.9" y1="184.1" x2="303.2" y2="179.9" stroke="#3a3f45" stroke-width="1"/><text x="167.5" y="179.0" font-family="ui-monospace,'SFMono-Regular',Menlo,Consolas,monospace" font-size="9" fill="#3a3f45" text-anchor="middle">166.9</text><line x1="303.0" y1="64.0" x2="316.0" y2="64.0" stroke="#6b7280" stroke-width="0.5"/><line x1="303.0" y1="168.0" x2="316.0" y2="168.0" stroke="#6b7280" stroke-width="0.5"/><line x1="313.0" y1="64.0" x2="313.0" y2="168.0" stroke="#3a3f45" stroke-width="0.7"/><line x1="310.9" y1="61.9" x2="315.2" y2="66.1" stroke="#3a3f45" stroke-width="1"/><line x1="310.9" y1="165.9" x2="315.2" y2="170.1" stroke="#3a3f45" stroke-width="1"/><text x="317.0" y="116.0" font-family="ui-monospace,'SFMono-Regular',Menlo,Consolas,monospace" font-size="9" fill="#3a3f45" text-anchor="start" dominant-baseline="middle">65</text><line x1="34.0" y1="62.0" x2="34.0" y2="51.0" stroke="#6b7280" stroke-width="0.5"/><line x1="177.0" y1="62.0" x2="177.0" y2="51.0" stroke="#6b7280" stroke-width="0.5"/><line x1="34.0" y1="54.0" x2="177.0" y2="54.0" stroke="#3a3f45" stroke-width="0.7"/><line x1="31.9" y1="56.1" x2="36.1" y2="51.9" stroke="#3a3f45" stroke-width="1"/><line x1="174.9" y1="56.1" x2="179.2" y2="51.9" stroke="#3a3f45" stroke-width="1"/><text x="105.5" y="51.0" font-family="ui-monospace,'SFMono-Regular',Menlo,Consolas,monospace" font-size="9" fill="#3a3f45" text-anchor="middle">89.4</text><path d="M 288.8 157.7 A 16.0 16.0 0 0 0 285.0 168.0" fill="none" stroke="#b5543b" stroke-width="0.9"/><text x="287.0" y="160.0" font-family="ui-monospace,'SFMono-Regular',Menlo,Consolas,monospace" font-size="9" fill="#b5543b" text-anchor="middle">40°</text></svg>