<svg xmlns="http://www.w3.org/2000/svg" viewBox="0 0 240 222" width="240" height="222"><rect width="240" height="222" fill="#ffffff"/><rect x="10.0" y="10.0" width="12.0" height="12.0" fill="#2b2e33" stroke="none"/><text x="28.0" y="20.0" font-family="ui-monospace,'SFMono-Regular',Menlo,Consolas,monospace" font-size="12" fill="#2b2e33" text-anchor="start" font-weight="600">B35</text><text x="228.0" y="20.0" font-family="ui-monospace,'SFMono-Regular',Menlo,Consolas,monospace" font-size="9.5" fill="#6b7280" text-anchor="end">数量 Qty 24</text><text x="10.0" y="36.0" font-family="ui-monospace,'SFMono-Regular',Menlo,Consolas,monospace" font-size="8.5" fill="#6b7280" text-anchor="start">Black · cut · cut flat</text><polygon points="74.0,168.2 34.0,168.2 34.0,64.0 74.0,64.0" fill="#e2e5ea" stroke="#2b2e33" stroke-width="1.2" stroke-linejoin="round"/><line x1="34.0" y1="170.2" x2="34.0" y2="185.2" stroke="#6b7280" stroke-width="0.5"/><line x1="74.0" y1="170.2" x2="74.0" y2="185.2" stroke="#6b7280" stroke-width="0.5"/><line x1="34.0" y1="182.2" x2="74.0" y2="182.2" stroke="#3a3f45" stroke-width="0.7"/><line x1="31.9" y1="184.3" x2="36.1" y2="180.0" stroke="#3a3f45" stroke-width="1"/><line x1="71.9" y1="184.3" x2="76.1" y2="180.0" stroke="#3a3f45" stroke-width="1"/><text x="54.0" y="179.2" font-family="ui-monospace,'SFMono-Regular',Menlo,Consolas,monospace" font-size="9" fill="#3a3f45" text-anchor="middle">25</text><line x1="76.0" y1="64.0" x2="89.0" y2="64.0" stroke="#6b7280" stroke-width="0.5"/><line x1="76.0" y1="168.2" x2="89.0" y2="168.2" stroke="#6b7280" stroke-width="0.5"/><line x1="86.0" y1="64.0" x2="86.0" y2="168.2" stroke="#3a3f45" stroke-width="0.7"/><line x1="83.9" y1="61.9" x2="88.1" y2="66.1" stroke="#3a3f45" stroke-width="1"/><line x1="83.9" y1="166.0" x2="88.1" y2="170.3" stroke="#3a3f45" stroke-width="1"/><text x="90.0" y="116.1" font-family="ui-monospace,'SFMono-Regular',Menlo,Consolas,monospace" font-size="9" fill="#3a3f45" text-anchor="start" dominant-baseline="middle">65.1</text></svg>