<svg xmlns="http://www.w3.org/2000/svg" viewBox="0 0 454 150" width="454" height="150"><rect width="454" height="150" fill="#ffffff"/><rect x="10.0" y="10.0" width="12.0" height="12.0" fill="#b5543b" stroke="none"/><text x="28.0" y="20.0" font-family="ui-monospace,'SFMono-Regular',Menlo,Consolas,monospace" font-size="12" fill="#2b2e33" text-anchor="start" font-weight="600">B15</text><text x="442.0" y="20.0" font-family="ui-monospace,'SFMono-Regular',Menlo,Consolas,monospace" font-size="9.5" fill="#6b7280" text-anchor="end">数量 Qty 11</text><text x="10.0" y="36.0" font-family="ui-monospace,'SFMono-Regular',Menlo,Consolas,monospace" font-size="8.5" fill="#6b7280" text-anchor="start">Red · cut · cut flat</text><polygon points="34.0,64.0 378.0,64.0 378.0,96.0 34.0,96.0" fill="#f3ded7" stroke="#b5543b" stroke-width="1.2" stroke-linejoin="round"/><line x1="34.0" y1="98.0" x2="34.0" y2="113.0" stroke="#6b7280" stroke-width="0.5"/><line x1="378.0" y1="98.0" x2="378.0" y2="113.0" stroke="#6b7280" stroke-width="0.5"/><line x1="34.0" y1="110.0" x2="378.0" y2="110.0" stroke="#3a3f45" stroke-width="0.7"/><line x1="31.9" y1="112.1" x2="36.1" y2="107.9" stroke="#3a3f45" stroke-width="1"/><line x1="375.9" y1="112.1" x2="380.1" y2="107.9" stroke="#3a3f45" stroke-width="1"/><text x="206.0" y="107.0" font-family="ui-monospace,'SFMono-Regular',Menlo,Consolas,monospace" font-size="9" fill="#3a3f45" text-anchor="middle">215</text><line x1="380.0" y1="64.0" x2="393.0" y2="64.0" stroke="#6b7280" stroke-width="0.5"/><line x1="380.0" y1="96.0" x2="393.0" y2="96.0" stroke="#6b7280" stroke-width="0.5"/><line x1="390.0" y1="64.0" x2="390.0" y2="96.0" stroke="#3a3f45" stroke-width="0.7"/><line x1="387.9" y1="61.9" x2="392.1" y2="66.1" stroke="#3a3f45" stroke-width="1"/><line x1="387.9" y1="93.9" x2="392.1" y2="98.1" stroke="#3a3f45" stroke-width="1"/><text x="394.0" y="80.0" font-family="ui-monospace,'SFMono-Regular',Menlo,Consolas,monospace" font-size="9" fill="#3a3f45" text-anchor="start" dominant-baseline="middle">20</text></svg>