<svg xmlns="http://www.w3.org/2000/svg" viewBox="0 0 240 209" width="240" height="209"><rect width="240" height="209" fill="#ffffff"/><rect x="10.0" y="10.0" width="12.0" height="12.0" fill="#2b2e33" stroke="none"/><text x="28.0" y="20.0" font-family="ui-monospace,'SFMono-Regular',Menlo,Consolas,monospace" font-size="12" fill="#2b2e33" text-anchor="start" font-weight="600">B48</text><text x="228.0" y="20.0" font-family="ui-monospace,'SFMono-Regular',Menlo,Consolas,monospace" font-size="9.5" fill="#6b7280" text-anchor="end">数量 Qty 26</text><text x="10.0" y="36.0" font-family="ui-monospace,'SFMono-Regular',Menlo,Consolas,monospace" font-size="8.5" fill="#6b7280" text-anchor="start">Black · angled · triangular cut</text><polygon points="34.0,154.6 142.0,154.6 142.0,64.0" fill="#e2e5ea" stroke="#2b2e33" stroke-width="1.2" stroke-linejoin="round"/><line x1="34.0" y1="156.6" x2="34.0" y2="171.6" stroke="#6b7280" stroke-width="0.5"/><line x1="142.0" y1="156.6" x2="142.0" y2="171.6" stroke="#6b7280" stroke-width="0.5"/><line x1="34.0" y1="168.6" x2="142.0" y2="168.6" stroke="#3a3f45" stroke-width="0.7"/><line x1="31.9" y1="170.7" x2="36.1" y2="166.4" stroke="#3a3f45" stroke-width="1"/><line x1="139.9" y1="170.7" x2="144.1" y2="166.4" stroke="#3a3f45" stroke-width="1"/><text x="88.0" y="165.6" font-family="ui-monospace,'SFMono-Regular',Menlo,Consolas,monospace" font-size="9" fill="#3a3f45" text-anchor="middle">67.5</text><line x1="144.0" y1="64.0" x2="157.0" y2="64.0" stroke="#6b7280" stroke-width="0.5"/><line x1="144.0" y1="154.6" x2="157.0" y2="154.6" stroke="#6b7280" stroke-width="0.5"/><line x1="154.0" y1="64.0" x2="154.0" y2="154.6" stroke="#3a3f45" stroke-width="0.7"/><line x1="151.9" y1="61.9" x2="156.1" y2="66.1" stroke="#3a3f45" stroke-width="1"/><line x1="151.9" y1="152.4" x2="156.1" y2="156.7" stroke="#3a3f45" stroke-width="1"/><text x="158.0" y="109.3" font-family="ui-monospace,'SFMono-Regular',Menlo,Consolas,monospace" font-size="9" fill="#3a3f45" text-anchor="start" dominant-baseline="middle">56.6</text><path d="M 50.0 154.6 A 16.0 16.0 0 0 0 46.3 144.3" fill="none" stroke="#b5543b" stroke-width="0.9"/><text x="48.0" y="146.6" font-family="ui-monospace,'SFMono-Regular',Menlo,Consolas,monospace" font-size="9" fill="#b5543b" text-anchor="middle">40°</text></svg>