<svg xmlns="http://www.w3.org/2000/svg" viewBox="0 0 282 198" width="282" height="198"><rect width="282" height="198" fill="#ffffff"/><rect x="10.0" y="10.0" width="12.0" height="12.0" fill="#2b2e33" stroke="none"/><text x="28.0" y="20.0" font-family="ui-monospace,'SFMono-Regular',Menlo,Consolas,monospace" font-size="12" fill="#2b2e33" text-anchor="start" font-weight="600">B29</text><text x="270.0" y="20.0" font-family="ui-monospace,'SFMono-Regular',Menlo,Consolas,monospace" font-size="9.5" fill="#6b7280" text-anchor="end">数量 Qty 2</text><text x="10.0" y="36.0" font-family="ui-monospace,'SFMono-Regular',Menlo,Consolas,monospace" font-size="8.5" fill="#6b7280" text-anchor="start">Black · cut · cut flat</text><polygon points="34.0,144.0 206.0,144.0 206.0,64.0 34.0,64.0" fill="#e2e5ea" stroke="#2b2e33" stroke-width="1.2" stroke-linejoin="round"/><line x1="34.0" y1="146.0" x2="34.0" y2="161.0" stroke="#6b7280" stroke-width="0.5"/><line x1="206.0" y1="146.0" x2="206.0" y2="161.0" stroke="#6b7280" stroke-width="0.5"/><line x1="34.0" y1="158.0" x2="206.0" y2="158.0" stroke="#3a3f45" stroke-width="0.7"/><line x1="31.9" y1="160.1" x2="36.1" y2="155.9" stroke="#3a3f45" stroke-width="1"/><line x1="203.9" y1="160.1" x2="208.1" y2="155.9" stroke="#3a3f45" stroke-width="1"/><text x="120.0" y="155.0" font-family="ui-monospace,'SFMono-Regular',Menlo,Consolas,monospace" font-size="9" fill="#3a3f45" text-anchor="middle">107.5</text><line x1="208.0" y1="64.0" x2="221.0" y2="64.0" stroke="#6b7280" stroke-width="0.5"/><line x1="208.0" y1="144.0" x2="221.0" y2="144.0" stroke="#6b7280" stroke-width="0.5"/><line x1="218.0" y1="64.0" x2="218.0" y2="144.0" stroke="#3a3f45" stroke-width="0.7"/><line x1="215.9" y1="61.9" x2="220.1" y2="66.1" stroke="#3a3f45" stroke-width="1"/><line x1="215.9" y1="141.9" x2="220.1" y2="146.1" stroke="#3a3f45" stroke-width="1"/><text x="222.0" y="104.0" font-family="ui-monospace,'SFMono-Regular',Menlo,Consolas,monospace" font-size="9" fill="#3a3f45" text-anchor="start" dominant-baseline="middle">50</text></svg>