<svg xmlns="http://www.w3.org/2000/svg" viewBox="0 0 240 192" width="240" height="192"><rect width="240" height="192" fill="#ffffff"/><rect x="10.0" y="10.0" width="12.0" height="12.0" fill="#2b2e33" stroke="none"/><text x="28.0" y="20.0" font-family="ui-monospace,'SFMono-Regular',Menlo,Consolas,monospace" font-size="12" fill="#2b2e33" text-anchor="start" font-weight="600">B34</text><text x="228.0" y="20.0" font-family="ui-monospace,'SFMono-Regular',Menlo,Consolas,monospace" font-size="9.5" fill="#6b7280" text-anchor="end">数量 Qty 2</text><text x="10.0" y="36.0" font-family="ui-monospace,'SFMono-Regular',Menlo,Consolas,monospace" font-size="8.5" fill="#6b7280" text-anchor="start">Black · cut · cut flat</text><polygon points="34.0,137.6 106.0,137.6 106.0,64.0 34.0,64.0" fill="#e2e5ea" stroke="#2b2e33" stroke-width="1.2" stroke-linejoin="round"/><line x1="34.0" y1="139.6" x2="34.0" y2="154.6" stroke="#6b7280" stroke-width="0.5"/><line x1="106.0" y1="139.6" x2="106.0" y2="154.6" stroke="#6b7280" stroke-width="0.5"/><line x1="34.0" y1="151.6" x2="106.0" y2="151.6" stroke="#3a3f45" stroke-width="0.7"/><line x1="31.9" y1="153.7" x2="36.1" y2="149.5" stroke="#3a3f45" stroke-width="1"/><line x1="103.9" y1="153.7" x2="108.1" y2="149.5" stroke="#3a3f45" stroke-width="1"/><text x="70.0" y="148.6" font-family="ui-monospace,'SFMono-Regular',Menlo,Consolas,monospace" font-size="9" fill="#3a3f45" text-anchor="middle">45</text><line x1="108.0" y1="64.0" x2="121.0" y2="64.0" stroke="#6b7280" stroke-width="0.5"/><line x1="108.0" y1="137.6" x2="121.0" y2="137.6" stroke="#6b7280" stroke-width="0.5"/><line x1="118.0" y1="64.0" x2="118.0" y2="137.6" stroke="#3a3f45" stroke-width="0.7"/><line x1="115.9" y1="61.9" x2="120.1" y2="66.1" stroke="#3a3f45" stroke-width="1"/><line x1="115.9" y1="135.5" x2="120.1" y2="139.7" stroke="#3a3f45" stroke-width="1"/><text x="122.0" y="100.8" font-family="ui-monospace,'SFMono-Regular',Menlo,Consolas,monospace" font-size="9" fill="#3a3f45" text-anchor="start" dominant-baseline="middle">46</text></svg>