<svg xmlns="http://www.w3.org/2000/svg" viewBox="0 0 266 184" width="266" height="184"><rect width="266" height="184" fill="#ffffff"/><rect x="10.0" y="10.0" width="12.0" height="12.0" fill="#b5543b" stroke="none"/><text x="28.0" y="20.0" font-family="ui-monospace,'SFMono-Regular',Menlo,Consolas,monospace" font-size="12" fill="#2b2e33" text-anchor="start" font-weight="600">B17</text><text x="254.0" y="20.0" font-family="ui-monospace,'SFMono-Regular',Menlo,Consolas,monospace" font-size="9.5" fill="#6b7280" text-anchor="end">数量 Qty 1</text><text x="10.0" y="36.0" font-family="ui-monospace,'SFMono-Regular',Menlo,Consolas,monospace" font-size="8.5" fill="#6b7280" text-anchor="start">Red · cut · cut flat</text><polygon points="34.0,64.0 190.0,64.0 190.0,129.6 34.0,129.6" fill="#f3ded7" stroke="#b5543b" stroke-width="1.2" stroke-linejoin="round"/><line x1="34.0" y1="131.6" x2="34.0" y2="146.6" stroke="#6b7280" stroke-width="0.5"/><line x1="190.0" y1="131.6" x2="190.0" y2="146.6" stroke="#6b7280" stroke-width="0.5"/><line x1="34.0" y1="143.6" x2="190.0" y2="143.6" stroke="#3a3f45" stroke-width="0.7"/><line x1="31.9" y1="145.7" x2="36.1" y2="141.5" stroke="#3a3f45" stroke-width="1"/><line x1="187.9" y1="145.7" x2="192.1" y2="141.5" stroke="#3a3f45" stroke-width="1"/><text x="112.0" y="140.6" font-family="ui-monospace,'SFMono-Regular',Menlo,Consolas,monospace" font-size="9" fill="#3a3f45" text-anchor="middle">97.5</text><line x1="192.0" y1="64.0" x2="205.0" y2="64.0" stroke="#6b7280" stroke-width="0.5"/><line x1="192.0" y1="129.6" x2="205.0" y2="129.6" stroke="#6b7280" stroke-width="0.5"/><line x1="202.0" y1="64.0" x2="202.0" y2="129.6" stroke="#3a3f45" stroke-width="0.7"/><line x1="199.9" y1="61.9" x2="204.1" y2="66.1" stroke="#3a3f45" stroke-width="1"/><line x1="199.9" y1="127.5" x2="204.1" y2="131.7" stroke="#3a3f45" stroke-width="1"/><text x="206.0" y="96.8" font-family="ui-monospace,'SFMono-Regular',Menlo,Consolas,monospace" font-size="9" fill="#3a3f45" text-anchor="start" dominant-baseline="middle">41</text></svg>