<svg xmlns="http://www.w3.org/2000/svg" viewBox="0 0 286 222" width="286" height="222"><rect width="286" height="222" fill="#ffffff"/><rect x="10.0" y="10.0" width="12.0" height="12.0" fill="#b5543b" stroke="none"/><text x="28.0" y="20.0" font-family="ui-monospace,'SFMono-Regular',Menlo,Consolas,monospace" font-size="12" fill="#2b2e33" text-anchor="start" font-weight="600">B10</text><text x="274.0" y="20.0" font-family="ui-monospace,'SFMono-Regular',Menlo,Consolas,monospace" font-size="9.5" fill="#6b7280" text-anchor="end">数量 Qty 169</text><text x="10.0" y="36.0" font-family="ui-monospace,'SFMono-Regular',Menlo,Consolas,monospace" font-size="8.5" fill="#6b7280" text-anchor="start">Red · cut · cut flat</text><polygon points="34.0,64.0 210.0,64.0 210.0,168.0 34.0,168.0" fill="#f3ded7" stroke="#b5543b" stroke-width="1.2" stroke-linejoin="round"/><line x1="34.0" y1="170.0" x2="34.0" y2="185.0" stroke="#6b7280" stroke-width="0.5"/><line x1="210.0" y1="170.0" x2="210.0" y2="185.0" stroke="#6b7280" stroke-width="0.5"/><line x1="34.0" y1="182.0" x2="210.0" y2="182.0" stroke="#3a3f45" stroke-width="0.7"/><line x1="31.9" y1="184.1" x2="36.1" y2="179.9" stroke="#3a3f45" stroke-width="1"/><line x1="207.9" y1="184.1" x2="212.1" y2="179.9" stroke="#3a3f45" stroke-width="1"/><text x="122.0" y="179.0" font-family="ui-monospace,'SFMono-Regular',Menlo,Consolas,monospace" font-size="9" fill="#3a3f45" text-anchor="middle">110</text><line x1="212.0" y1="64.0" x2="225.0" y2="64.0" stroke="#6b7280" stroke-width="0.5"/><line x1="212.0" y1="168.0" x2="225.0" y2="168.0" stroke="#6b7280" stroke-width="0.5"/><line x1="222.0" y1="64.0" x2="222.0" y2="168.0" stroke="#3a3f45" stroke-width="0.7"/><line x1="219.9" y1="61.9" x2="224.1" y2="66.1" stroke="#3a3f45" stroke-width="1"/><line x1="219.9" y1="165.9" x2="224.1" y2="170.1" stroke="#3a3f45" stroke-width="1"/><text x="226.0" y="116.0" font-family="ui-monospace,'SFMono-Regular',Menlo,Consolas,monospace" font-size="9" fill="#3a3f45" text-anchor="start" dominant-baseline="middle">65</text></svg>