<svg xmlns="http://www.w3.org/2000/svg" viewBox="0 0 373 222" width="373" height="222"><rect width="373" height="222" fill="#ffffff"/><rect x="10.0" y="10.0" width="12.0" height="12.0" fill="#2b2e33" stroke="none"/><text x="28.0" y="20.0" font-family="ui-monospace,'SFMono-Regular',Menlo,Consolas,monospace" font-size="12" fill="#2b2e33" text-anchor="start" font-weight="600">B43</text><text x="360.7" y="20.0" font-family="ui-monospace,'SFMono-Regular',Menlo,Consolas,monospace" font-size="9.5" fill="#6b7280" text-anchor="end">数量 Qty 1</text><text x="10.0" y="36.0" font-family="ui-monospace,'SFMono-Regular',Menlo,Consolas,monospace" font-size="8.5" fill="#6b7280" text-anchor="start">Black · angled · trapezoid</text><polygon points="34.0,168.0 296.7,168.0 172.7,64.0 158.0,64.0" fill="#e2e5ea" stroke="#2b2e33" stroke-width="1.2" stroke-linejoin="round"/><line x1="34.0" y1="170.0" x2="34.0" y2="185.0" stroke="#6b7280" stroke-width="0.5"/><line x1="296.7" y1="170.0" x2="296.7" y2="185.0" stroke="#6b7280" stroke-width="0.5"/><line x1="34.0" y1="182.0" x2="296.7" y2="182.0" stroke="#3a3f45" stroke-width="0.7"/><line x1="31.9" y1="184.1" x2="36.1" y2="179.9" stroke="#3a3f45" stroke-width="1"/><line x1="294.6" y1="184.1" x2="298.8" y2="179.9" stroke="#3a3f45" stroke-width="1"/><text x="165.4" y="179.0" font-family="ui-monospace,'SFMono-Regular',Menlo,Consolas,monospace" font-size="9" fill="#3a3f45" text-anchor="middle">164.2</text><line x1="298.7" y1="64.0" x2="311.7" y2="64.0" stroke="#6b7280" stroke-width="0.5"/><line x1="298.7" y1="168.0" x2="311.7" y2="168.0" stroke="#6b7280" stroke-width="0.5"/><line x1="308.7" y1="64.0" x2="308.7" y2="168.0" stroke="#3a3f45" stroke-width="0.7"/><line x1="306.6" y1="61.9" x2="310.8" y2="66.1" stroke="#3a3f45" stroke-width="1"/><line x1="306.6" y1="165.9" x2="310.8" y2="170.1" stroke="#3a3f45" stroke-width="1"/><text x="312.7" y="116.0" font-family="ui-monospace,'SFMono-Regular',Menlo,Consolas,monospace" font-size="9" fill="#3a3f45" text-anchor="start" dominant-baseline="middle">65</text><line x1="158.0" y1="62.0" x2="158.0" y2="51.0" stroke="#6b7280" stroke-width="0.5"/><line x1="172.7" y1="62.0" x2="172.7" y2="51.0" stroke="#6b7280" stroke-width="0.5"/><line x1="158.0" y1="54.0" x2="172.7" y2="54.0" stroke="#3a3f45" stroke-width="0.7"/><line x1="155.9" y1="56.1" x2="160.1" y2="51.9" stroke="#3a3f45" stroke-width="1"/><line x1="170.6" y1="56.1" x2="174.8" y2="51.9" stroke="#3a3f45" stroke-width="1"/><text x="165.4" y="51.0" font-family="ui-monospace,'SFMono-Regular',Menlo,Consolas,monospace" font-size="9" fill="#3a3f45" text-anchor="middle">9.2</text><path d="M 50.0 168.0 A 16.0 16.0 0 0 0 46.3 157.7" fill="none" stroke="#b5543b" stroke-width="0.9"/><text x="48.0" y="160.0" font-family="ui-monospace,'SFMono-Regular',Menlo,Consolas,monospace" font-size="9" fill="#b5543b" text-anchor="middle">40°</text></svg>