<svg xmlns="http://www.w3.org/2000/svg" viewBox="0 0 240 222" width="240" height="222"><rect width="240" height="222" fill="#ffffff"/><rect x="10.0" y="10.0" width="12.0" height="12.0" fill="#2b2e33" stroke="none"/><text x="28.0" y="20.0" font-family="ui-monospace,'SFMono-Regular',Menlo,Consolas,monospace" font-size="12" fill="#2b2e33" text-anchor="start" font-weight="600">B47</text><text x="228.0" y="20.0" font-family="ui-monospace,'SFMono-Regular',Menlo,Consolas,monospace" font-size="9.5" fill="#6b7280" text-anchor="end">数量 Qty 1</text><text x="10.0" y="36.0" font-family="ui-monospace,'SFMono-Regular',Menlo,Consolas,monospace" font-size="8.5" fill="#6b7280" text-anchor="start">Black · angled · right-trapezoid</text><polygon points="34.0,168.0 162.8,168.0 38.8,64.0 34.0,64.0" fill="#e2e5ea" stroke="#2b2e33" stroke-width="1.2" stroke-linejoin="round"/><line x1="34.0" y1="170.0" x2="34.0" y2="185.0" stroke="#6b7280" stroke-width="0.5"/><line x1="162.8" y1="170.0" x2="162.8" y2="185.0" stroke="#6b7280" stroke-width="0.5"/><line x1="34.0" y1="182.0" x2="162.8" y2="182.0" stroke="#3a3f45" stroke-width="0.7"/><line x1="31.9" y1="184.1" x2="36.1" y2="179.9" stroke="#3a3f45" stroke-width="1"/><line x1="160.7" y1="184.1" x2="164.9" y2="179.9" stroke="#3a3f45" stroke-width="1"/><text x="98.4" y="179.0" font-family="ui-monospace,'SFMono-Regular',Menlo,Consolas,monospace" font-size="9" fill="#3a3f45" text-anchor="middle">80.5</text><line x1="164.8" y1="64.0" x2="177.8" y2="64.0" stroke="#6b7280" stroke-width="0.5"/><line x1="164.8" y1="168.0" x2="177.8" y2="168.0" stroke="#6b7280" stroke-width="0.5"/><line x1="174.8" y1="64.0" x2="174.8" y2="168.0" stroke="#3a3f45" stroke-width="0.7"/><line x1="172.7" y1="61.9" x2="176.9" y2="66.1" stroke="#3a3f45" stroke-width="1"/><line x1="172.7" y1="165.9" x2="176.9" y2="170.1" stroke="#3a3f45" stroke-width="1"/><text x="178.8" y="116.0" font-family="ui-monospace,'SFMono-Regular',Menlo,Consolas,monospace" font-size="9" fill="#3a3f45" text-anchor="start" dominant-baseline="middle">65</text><line x1="34.0" y1="62.0" x2="34.0" y2="51.0" stroke="#6b7280" stroke-width="0.5"/><line x1="38.8" y1="62.0" x2="38.8" y2="51.0" stroke="#6b7280" stroke-width="0.5"/><line x1="34.0" y1="54.0" x2="38.8" y2="54.0" stroke="#3a3f45" stroke-width="0.7"/><line x1="31.9" y1="56.1" x2="36.1" y2="51.9" stroke="#3a3f45" stroke-width="1"/><line x1="36.7" y1="56.1" x2="40.9" y2="51.9" stroke="#3a3f45" stroke-width="1"/><text x="36.4" y="51.0" font-family="ui-monospace,'SFMono-Regular',Menlo,Consolas,monospace" font-size="9" fill="#3a3f45" text-anchor="middle">3</text><path d="M 150.5 157.7 A 16.0 16.0 0 0 0 146.8 168.0" fill="none" stroke="#b5543b" stroke-width="0.9"/><text x="148.8" y="160.0" font-family="ui-monospace,'SFMono-Regular',Menlo,Consolas,monospace" font-size="9" fill="#b5543b" text-anchor="middle">40°</text></svg>