<svg xmlns="http://www.w3.org/2000/svg" viewBox="0 0 274 222" width="274" height="222"><rect width="274" height="222" fill="#ffffff"/><rect x="10.0" y="10.0" width="12.0" height="12.0" fill="#2b2e33" stroke="none"/><text x="28.0" y="20.0" font-family="ui-monospace,'SFMono-Regular',Menlo,Consolas,monospace" font-size="12" fill="#2b2e33" text-anchor="start" font-weight="600">B28</text><text x="262.0" y="20.0" font-family="ui-monospace,'SFMono-Regular',Menlo,Consolas,monospace" font-size="9.5" fill="#6b7280" text-anchor="end">数量 Qty 134</text><text x="10.0" y="36.0" font-family="ui-monospace,'SFMono-Regular',Menlo,Consolas,monospace" font-size="8.5" fill="#6b7280" text-anchor="start">Black · cut · cut flat</text><polygon points="34.0,168.0 198.0,168.0 198.0,64.0 34.0,64.0" fill="#e2e5ea" stroke="#2b2e33" stroke-width="1.2" stroke-linejoin="round"/><line x1="34.0" y1="170.0" x2="34.0" y2="185.0" stroke="#6b7280" stroke-width="0.5"/><line x1="198.0" y1="170.0" x2="198.0" y2="185.0" stroke="#6b7280" stroke-width="0.5"/><line x1="34.0" y1="182.0" x2="198.0" y2="182.0" stroke="#3a3f45" stroke-width="0.7"/><line x1="31.9" y1="184.1" x2="36.1" y2="179.9" stroke="#3a3f45" stroke-width="1"/><line x1="195.9" y1="184.1" x2="200.1" y2="179.9" stroke="#3a3f45" stroke-width="1"/><text x="116.0" y="179.0" font-family="ui-monospace,'SFMono-Regular',Menlo,Consolas,monospace" font-size="9" fill="#3a3f45" text-anchor="middle">102.5</text><line x1="200.0" y1="64.0" x2="213.0" y2="64.0" stroke="#6b7280" stroke-width="0.5"/><line x1="200.0" y1="168.0" x2="213.0" y2="168.0" stroke="#6b7280" stroke-width="0.5"/><line x1="210.0" y1="64.0" x2="210.0" y2="168.0" stroke="#3a3f45" stroke-width="0.7"/><line x1="207.9" y1="61.9" x2="212.1" y2="66.1" stroke="#3a3f45" stroke-width="1"/><line x1="207.9" y1="165.9" x2="212.1" y2="170.1" stroke="#3a3f45" stroke-width="1"/><text x="214.0" y="116.0" font-family="ui-monospace,'SFMono-Regular',Menlo,Consolas,monospace" font-size="9" fill="#3a3f45" text-anchor="start" dominant-baseline="middle">65</text></svg>