<svg xmlns="http://www.w3.org/2000/svg" viewBox="0 0 610 152" width="610" height="152"><rect width="610" height="152" fill="#ffffff"/><rect x="10.0" y="10.0" width="12.0" height="12.0" fill="#2b2e33" stroke="none"/><text x="28.0" y="20.0" font-family="ui-monospace,'SFMono-Regular',Menlo,Consolas,monospace" font-size="12" fill="#2b2e33" text-anchor="start" font-weight="600">R1000</text><text x="598.0" y="20.0" font-family="ui-monospace,'SFMono-Regular',Menlo,Consolas,monospace" font-size="9.5" fill="#6b7280" text-anchor="end">数量 Qty 1157</text><text x="10.0" y="36.0" font-family="ui-monospace,'SFMono-Regular',Menlo,Consolas,monospace" font-size="8.5" fill="#6b7280" text-anchor="start">clip · rectangle · t=0.25</text><text x="10.0" y="144.0" font-family="ui-monospace,'SFMono-Regular',Menlo,Consolas,monospace" font-size="8" fill="#6b7280" text-anchor="start">孔 Holes 7×Ø3.5 @ 125 · 螺钉 Screws 7</text><polygon points="534.0,98.0 34.0,98.0 34.0,64.0 534.0,64.0" fill="#e2e5ea" stroke="#2b2e33" stroke-width="1.2" stroke-linejoin="round"/><line x1="34.0" y1="100.0" x2="34.0" y2="115.0" stroke="#6b7280" stroke-width="0.5"/><line x1="534.0" y1="100.0" x2="534.0" y2="115.0" stroke="#6b7280" stroke-width="0.5"/><line x1="34.0" y1="112.0" x2="534.0" y2="112.0" stroke="#3a3f45" stroke-width="0.7"/><line x1="31.9" y1="114.1" x2="36.1" y2="109.9" stroke="#3a3f45" stroke-width="1"/><line x1="531.9" y1="114.1" x2="536.1" y2="109.9" stroke="#3a3f45" stroke-width="1"/><text x="284.0" y="109.0" font-family="ui-monospace,'SFMono-Regular',Menlo,Consolas,monospace" font-size="9" fill="#3a3f45" text-anchor="middle">1000</text><line x1="536.0" y1="64.0" x2="549.0" y2="64.0" stroke="#6b7280" stroke-width="0.5"/><line x1="536.0" y1="98.0" x2="549.0" y2="98.0" stroke="#6b7280" stroke-width="0.5"/><line x1="546.0" y1="64.0" x2="546.0" y2="98.0" stroke="#3a3f45" stroke-width="0.7"/><line x1="543.9" y1="61.9" x2="548.1" y2="66.1" stroke="#3a3f45" stroke-width="1"/><line x1="543.9" y1="95.9" x2="548.1" y2="100.1" stroke="#3a3f45" stroke-width="1"/><text x="550.0" y="81.0" font-family="ui-monospace,'SFMono-Regular',Menlo,Consolas,monospace" font-size="9" fill="#3a3f45" text-anchor="start" dominant-baseline="middle">68</text><circle cx="96.5" cy="81.0" r="1.60" stroke="#3a3f45" fill="none" stroke-width="0.8"/><circle cx="159.0" cy="81.0" r="1.60" stroke="#3a3f45" fill="none" stroke-width="0.8"/><circle cx="221.5" cy="81.0" r="1.60" stroke="#3a3f45" fill="none" stroke-width="0.8"/><circle cx="284.0" cy="81.0" r="1.60" stroke="#3a3f45" fill="none" stroke-width="0.8"/><circle cx="346.5" cy="81.0" r="1.60" stroke="#3a3f45" fill="none" stroke-width="0.8"/><circle cx="409.0" cy="81.0" r="1.60" stroke="#3a3f45" fill="none" stroke-width="0.8"/><circle cx="471.5" cy="81.0" r="1.60" stroke="#3a3f45" fill="none" stroke-width="0.8"/></svg>