<svg xmlns="http://www.w3.org/2000/svg" viewBox="0 0 240 152" width="240" height="152"><rect width="240" height="152" fill="#ffffff"/><rect x="10.0" y="10.0" width="12.0" height="12.0" fill="#2b2e33" stroke="none"/><text x="28.0" y="20.0" font-family="ui-monospace,'SFMono-Regular',Menlo,Consolas,monospace" font-size="12" fill="#2b2e33" text-anchor="start" font-weight="600">T_LEFT_40</text><text x="228.0" y="20.0" font-family="ui-monospace,'SFMono-Regular',Menlo,Consolas,monospace" font-size="9.5" fill="#6b7280" text-anchor="end">数量 Qty 34</text><text x="10.0" y="36.0" font-family="ui-monospace,'SFMono-Regular',Menlo,Consolas,monospace" font-size="8.5" fill="#6b7280" text-anchor="start">clip · right-trapezoid · t=0.25</text><text x="10.0" y="144.0" font-family="ui-monospace,'SFMono-Regular',Menlo,Consolas,monospace" font-size="8" fill="#6b7280" text-anchor="start">孔 Holes 3×Ø3.5 · 螺钉 Screws 3</text><polygon points="74.5,64.0 89.5,64.0 89.5,98.0 34.0,98.0" fill="#e2e5ea" stroke="#2b2e33" stroke-width="1.2" stroke-linejoin="round"/><line x1="34.0" y1="100.0" x2="34.0" y2="115.0" stroke="#6b7280" stroke-width="0.5"/><line x1="89.5" y1="100.0" x2="89.5" y2="115.0" stroke="#6b7280" stroke-width="0.5"/><line x1="34.0" y1="112.0" x2="89.5" y2="112.0" stroke="#3a3f45" stroke-width="0.7"/><line x1="31.9" y1="114.1" x2="36.1" y2="109.9" stroke="#3a3f45" stroke-width="1"/><line x1="87.4" y1="114.1" x2="91.6" y2="109.9" stroke="#3a3f45" stroke-width="1"/><text x="61.8" y="109.0" font-family="ui-monospace,'SFMono-Regular',Menlo,Consolas,monospace" font-size="9" fill="#3a3f45" text-anchor="middle">111</text><line x1="91.5" y1="64.0" x2="104.5" y2="64.0" stroke="#6b7280" stroke-width="0.5"/><line x1="91.5" y1="98.0" x2="104.5" y2="98.0" stroke="#6b7280" stroke-width="0.5"/><line x1="101.5" y1="64.0" x2="101.5" y2="98.0" stroke="#3a3f45" stroke-width="0.7"/><line x1="99.4" y1="61.9" x2="103.6" y2="66.1" stroke="#3a3f45" stroke-width="1"/><line x1="99.4" y1="95.9" x2="103.6" y2="100.1" stroke="#3a3f45" stroke-width="1"/><text x="105.5" y="81.0" font-family="ui-monospace,'SFMono-Regular',Menlo,Consolas,monospace" font-size="9" fill="#3a3f45" text-anchor="start" dominant-baseline="middle">68</text><line x1="74.5" y1="62.0" x2="74.5" y2="51.0" stroke="#6b7280" stroke-width="0.5"/><line x1="89.5" y1="62.0" x2="89.5" y2="51.0" stroke="#6b7280" stroke-width="0.5"/><line x1="74.5" y1="54.0" x2="89.5" y2="54.0" stroke="#3a3f45" stroke-width="0.7"/><line x1="72.4" y1="56.1" x2="76.6" y2="51.9" stroke="#3a3f45" stroke-width="1"/><line x1="87.4" y1="56.1" x2="91.6" y2="51.9" stroke="#3a3f45" stroke-width="1"/><text x="82.0" y="51.0" font-family="ui-monospace,'SFMono-Regular',Menlo,Consolas,monospace" font-size="9" fill="#3a3f45" text-anchor="middle">30</text><path d="M 50.0 98.0 A 16.0 16.0 0 0 0 46.3 87.7" fill="none" stroke="#b5543b" stroke-width="0.9"/><text x="48.0" y="90.0" font-family="ui-monospace,'SFMono-Regular',Menlo,Consolas,monospace" font-size="9" fill="#b5543b" text-anchor="middle">40°</text><circle cx="61.5" cy="81.0" r="1.60" stroke="#3a3f45" fill="none" stroke-width="0.8"/><circle cx="71.5" cy="81.0" r="1.60" stroke="#3a3f45" fill="none" stroke-width="0.8"/><circle cx="81.5" cy="81.0" r="1.60" stroke="#3a3f45" fill="none" stroke-width="0.8"/></svg>