<svg xmlns="http://www.w3.org/2000/svg" viewBox="0 0 600 998" font-family="Arial,'Noto Sans SC',sans-serif">
<rect x="0" y="0" width="600" height="998" fill="#ffffff"/>
<text x="30" y="30" font-size="20" font-weight="bold" fill="#111">Brick slip layout 砖片排布 — Canopy side wall L — outer face</text>
<text x="30" y="54" font-size="13" fill="#444">雨棚左侧墙 — 外面 · 284 slips 片</text>
<text x="30" y="72" font-size="11" fill="#888">3 Monahan Ave (HA23007) · black-corners-flat revision · dims mm</text>
<rect x="30.0" y="86.0" width="115.6" height="850.0" fill="#f4f2ee" stroke="#bbb" stroke-width="0.6"/>
<polygon points="30.0,936.0 64.5,936.0 64.5,925.6 30.0,925.6" fill="#5167d6" stroke="#5a5a5a" stroke-width="0.3"/>
<polygon points="66.1,936.0 100.6,936.0 100.6,925.6 66.1,925.6" fill="#5167d6" stroke="#5a5a5a" stroke-width="0.3"/>
<polygon points="102.2,936.0 136.7,936.0 136.7,925.6 102.2,925.6" fill="#5167d6" stroke="#5a5a5a" stroke-width="0.3"/>
<polygon points="138.3,936.0 145.6,936.0 145.6,925.6 138.3,925.6" fill="#d651d0" stroke="#5a5a5a" stroke-width="0.3"/>
<polygon points="30.0,924.0 47.3,924.0 47.3,913.5 30.0,913.5" fill="#d65188" stroke="#5a5a5a" stroke-width="0.3"/>
<polygon points="48.9,924.0 83.4,924.0 83.4,913.5 48.9,913.5" fill="#5167d6" stroke="#5a5a5a" stroke-width="0.3"/>
<polygon points="85.0,924.0 119.5,924.0 119.5,913.5 85.0,913.5" fill="#5167d6" stroke="#5a5a5a" stroke-width="0.3"/>
<polygon points="121.1,924.0 145.6,924.0 145.6,913.5 121.1,913.5" fill="#51d689" stroke="#5a5a5a" stroke-width="0.3"/>
<polygon points="30.0,911.9 64.5,911.9 64.5,901.5 30.0,901.5" fill="#5167d6" stroke="#5a5a5a" stroke-width="0.3"/>
<polygon points="66.1,911.9 100.6,911.9 100.6,901.5 66.1,901.5" fill="#5167d6" stroke="#5a5a5a" stroke-width="0.3"/>
<polygon points="102.2,911.9 136.7,911.9 136.7,901.5 102.2,901.5" fill="#5167d6" stroke="#5a5a5a" stroke-width="0.3"/>
<polygon points="138.3,911.9 145.6,911.9 145.6,901.5 138.3,901.5" fill="#d651d0" stroke="#5a5a5a" stroke-width="0.3"/>
<polygon points="30.0,899.9 47.3,899.9 47.3,889.5 30.0,889.5" fill="#d65188" stroke="#5a5a5a" stroke-width="0.3"/>
<polygon points="48.9,899.9 83.4,899.9 83.4,889.5 48.9,889.5" fill="#5167d6" stroke="#5a5a5a" stroke-width="0.3"/>
<polygon points="85.0,899.9 119.5,899.9 119.5,889.5 85.0,889.5" fill="#5167d6" stroke="#5a5a5a" stroke-width="0.3"/>
<polygon points="121.1,899.9 145.6,899.9 145.6,889.5 121.1,889.5" fill="#51d689" stroke="#5a5a5a" stroke-width="0.3"/>
<polygon points="30.0,887.9 64.5,887.9 64.5,877.4 30.0,877.4" fill="#5167d6" stroke="#5a5a5a" stroke-width="0.3"/>
<polygon points="66.1,887.9 100.6,887.9 100.6,877.4 66.1,877.4" fill="#5167d6" stroke="#5a5a5a" stroke-width="0.3"/>
<polygon points="102.2,887.9 136.7,887.9 136.7,877.4 102.2,877.4" fill="#5167d6" stroke="#5a5a5a" stroke-width="0.3"/>
<polygon points="138.3,887.9 145.6,887.9 145.6,877.4 138.3,877.4" fill="#d651d0" stroke="#5a5a5a" stroke-width="0.3"/>
<polygon points="30.0,875.8 47.3,875.8 47.3,865.4 30.0,865.4" fill="#d65188" stroke="#5a5a5a" stroke-width="0.3"/>
<polygon points="48.9,875.8 83.4,875.8 83.4,865.4 48.9,865.4" fill="#5167d6" stroke="#5a5a5a" stroke-width="0.3"/>
<polygon points="85.0,875.8 119.5,875.8 119.5,865.4 85.0,865.4" fill="#5167d6" stroke="#5a5a5a" stroke-width="0.3"/>
<polygon points="121.1,875.8 145.6,875.8 145.6,865.4 121.1,865.4" fill="#51d689" stroke="#5a5a5a" stroke-width="0.3"/>
<polygon points="30.0,863.8 64.5,863.8 64.5,853.3 30.0,853.3" fill="#5167d6" stroke="#5a5a5a" stroke-width="0.3"/>
<polygon points="66.1,863.8 100.6,863.8 100.6,853.3 66.1,853.3" fill="#5167d6" stroke="#5a5a5a" stroke-width="0.3"/>
<polygon points="102.2,863.8 136.7,863.8 136.7,853.3 102.2,853.3" fill="#5167d6" stroke="#5a5a5a" stroke-width="0.3"/>
<polygon points="138.3,863.8 145.6,863.8 145.6,853.3 138.3,853.3" fill="#d651d0" stroke="#5a5a5a" stroke-width="0.3"/>
<polygon points="30.0,851.7 47.3,851.7 47.3,841.3 30.0,841.3" fill="#d65188" stroke="#5a5a5a" stroke-width="0.3"/>
<polygon points="48.9,851.7 83.4,851.7 83.4,841.3 48.9,841.3" fill="#5167d6" stroke="#5a5a5a" stroke-width="0.3"/>
<polygon points="85.0,851.7 119.5,851.7 119.5,841.3 85.0,841.3" fill="#5167d6" stroke="#5a5a5a" stroke-width="0.3"/>
<polygon points="121.1,851.7 145.6,851.7 145.6,841.3 121.1,841.3" fill="#51d689" stroke="#5a5a5a" stroke-width="0.3"/>
<polygon points="30.0,839.7 64.5,839.7 64.5,829.3 30.0,829.3" fill="#5167d6" stroke="#5a5a5a" stroke-width="0.3"/>
<polygon points="66.1,839.7 100.6,839.7 100.6,829.3 66.1,829.3" fill="#5167d6" stroke="#5a5a5a" stroke-width="0.3"/>
<polygon points="102.2,839.7 136.7,839.7 136.7,829.3 102.2,829.3" fill="#5167d6" stroke="#5a5a5a" stroke-width="0.3"/>
<polygon points="138.3,839.7 145.6,839.7 145.6,829.3 138.3,829.3" fill="#d651d0" stroke="#5a5a5a" stroke-width="0.3"/>
<polygon points="30.0,827.7 47.3,827.7 47.3,817.2 30.0,817.2" fill="#d65188" stroke="#5a5a5a" stroke-width="0.3"/>
<polygon points="48.9,827.7 83.4,827.7 83.4,817.2 48.9,817.2" fill="#5167d6" stroke="#5a5a5a" stroke-width="0.3"/>
<polygon points="85.0,827.7 119.5,827.7 119.5,817.2 85.0,817.2" fill="#5167d6" stroke="#5a5a5a" stroke-width="0.3"/>
<polygon points="121.1,827.7 145.6,827.7 145.6,817.2 121.1,817.2" fill="#51d689" stroke="#5a5a5a" stroke-width="0.3"/>
<polygon points="30.0,815.6 64.5,815.6 64.5,805.2 30.0,805.2" fill="#5167d6" stroke="#5a5a5a" stroke-width="0.3"/>
<polygon points="66.1,815.6 100.6,815.6 100.6,805.2 66.1,805.2" fill="#5167d6" stroke="#5a5a5a" stroke-width="0.3"/>
<polygon points="102.2,815.6 136.7,815.6 136.7,805.2 102.2,805.2" fill="#5167d6" stroke="#5a5a5a" stroke-width="0.3"/>
<polygon points="138.3,815.6 145.6,815.6 145.6,805.2 138.3,805.2" fill="#d651d0" stroke="#5a5a5a" stroke-width="0.3"/>
<polygon points="30.0,803.6 47.3,803.6 47.3,793.2 30.0,793.2" fill="#d65188" stroke="#5a5a5a" stroke-width="0.3"/>
<polygon points="48.9,803.6 83.4,803.6 83.4,793.2 48.9,793.2" fill="#5167d6" stroke="#5a5a5a" stroke-width="0.3"/>
<polygon points="85.0,803.6 119.5,803.6 119.5,793.2 85.0,793.2" fill="#5167d6" stroke="#5a5a5a" stroke-width="0.3"/>
<polygon points="121.1,803.6 145.6,803.6 145.6,793.2 121.1,793.2" fill="#51d689" stroke="#5a5a5a" stroke-width="0.3"/>
<polygon points="30.0,791.6 64.5,791.6 64.5,781.1 30.0,781.1" fill="#5167d6" stroke="#5a5a5a" stroke-width="0.3"/>
<polygon points="66.1,791.6 100.6,791.6 100.6,781.1 66.1,781.1" fill="#5167d6" stroke="#5a5a5a" stroke-width="0.3"/>
<polygon points="102.2,791.6 136.7,791.6 136.7,781.1 102.2,781.1" fill="#5167d6" stroke="#5a5a5a" stroke-width="0.3"/>
<polygon points="138.3,791.6 145.6,791.6 145.6,781.1 138.3,781.1" fill="#d651d0" stroke="#5a5a5a" stroke-width="0.3"/>
<polygon points="30.0,779.5 47.3,779.5 47.3,769.1 30.0,769.1" fill="#d65188" stroke="#5a5a5a" stroke-width="0.3"/>
<polygon points="48.9,779.5 83.4,779.5 83.4,769.1 48.9,769.1" fill="#5167d6" stroke="#5a5a5a" stroke-width="0.3"/>
<polygon points="85.0,779.5 119.5,779.5 119.5,769.1 85.0,769.1" fill="#5167d6" stroke="#5a5a5a" stroke-width="0.3"/>
<polygon points="121.1,779.5 145.6,779.5 145.6,769.1 121.1,769.1" fill="#51d689" stroke="#5a5a5a" stroke-width="0.3"/>
<polygon points="30.0,767.5 64.5,767.5 64.5,757.0 30.0,757.0" fill="#5167d6" stroke="#5a5a5a" stroke-width="0.3"/>
<polygon points="66.1,767.5 100.6,767.5 100.6,757.0 66.1,757.0" fill="#5167d6" stroke="#5a5a5a" stroke-width="0.3"/>
<polygon points="102.2,767.5 136.7,767.5 136.7,757.0 102.2,757.0" fill="#5167d6" stroke="#5a5a5a" stroke-width="0.3"/>
<polygon points="138.3,767.5 145.6,767.5 145.6,757.0 138.3,757.0" fill="#d651d0" stroke="#5a5a5a" stroke-width="0.3"/>
<polygon points="30.0,755.4 47.3,755.4 47.3,745.0 30.0,745.0" fill="#d65188" stroke="#5a5a5a" stroke-width="0.3"/>
<polygon points="48.9,755.4 83.4,755.4 83.4,745.0 48.9,745.0" fill="#5167d6" stroke="#5a5a5a" stroke-width="0.3"/>
<polygon points="85.0,755.4 119.5,755.4 119.5,745.0 85.0,745.0" fill="#5167d6" stroke="#5a5a5a" stroke-width="0.3"/>
<polygon points="121.1,755.4 145.6,755.4 145.6,745.0 121.1,745.0" fill="#51d689" stroke="#5a5a5a" stroke-width="0.3"/>
<polygon points="30.0,743.4 64.5,743.4 64.5,733.0 30.0,733.0" fill="#5167d6" stroke="#5a5a5a" stroke-width="0.3"/>
<polygon points="66.1,743.4 100.6,743.4 100.6,733.0 66.1,733.0" fill="#5167d6" stroke="#5a5a5a" stroke-width="0.3"/>
<polygon points="102.2,743.4 136.7,743.4 136.7,733.0 102.2,733.0" fill="#5167d6" stroke="#5a5a5a" stroke-width="0.3"/>
<polygon points="138.3,743.4 145.6,743.4 145.6,733.0 138.3,733.0" fill="#d651d0" stroke="#5a5a5a" stroke-width="0.3"/>
<polygon points="30.0,731.4 47.3,731.4 47.3,720.9 30.0,720.9" fill="#d65188" stroke="#5a5a5a" stroke-width="0.3"/>
<polygon points="48.9,731.4 83.4,731.4 83.4,720.9 48.9,720.9" fill="#5167d6" stroke="#5a5a5a" stroke-width="0.3"/>
<polygon points="85.0,731.4 119.5,731.4 119.5,720.9 85.0,720.9" fill="#5167d6" stroke="#5a5a5a" stroke-width="0.3"/>
<polygon points="121.1,731.4 145.6,731.4 145.6,720.9 121.1,720.9" fill="#51d689" stroke="#5a5a5a" stroke-width="0.3"/>
<polygon points="30.0,719.3 64.5,719.3 64.5,708.9 30.0,708.9" fill="#5167d6" stroke="#5a5a5a" stroke-width="0.3"/>
<polygon points="66.1,719.3 100.6,719.3 100.6,708.9 66.1,708.9" fill="#5167d6" stroke="#5a5a5a" stroke-width="0.3"/>
<polygon points="102.2,719.3 136.7,719.3 136.7,708.9 102.2,708.9" fill="#5167d6" stroke="#5a5a5a" stroke-width="0.3"/>
<polygon points="138.3,719.3 145.6,719.3 145.6,708.9 138.3,708.9" fill="#d651d0" stroke="#5a5a5a" stroke-width="0.3"/>
<polygon points="30.0,707.3 47.3,707.3 47.3,696.9 30.0,696.9" fill="#d65188" stroke="#5a5a5a" stroke-width="0.3"/>
<polygon points="48.9,707.3 83.4,707.3 83.4,696.9 48.9,696.9" fill="#5167d6" stroke="#5a5a5a" stroke-width="0.3"/>
<polygon points="85.0,707.3 119.5,707.3 119.5,696.9 85.0,696.9" fill="#5167d6" stroke="#5a5a5a" stroke-width="0.3"/>
<polygon points="121.1,707.3 145.6,707.3 145.6,696.9 121.1,696.9" fill="#51d689" stroke="#5a5a5a" stroke-width="0.3"/>
<polygon points="30.0,695.3 64.5,695.3 64.5,684.8 30.0,684.8" fill="#5167d6" stroke="#5a5a5a" stroke-width="0.3"/>
<polygon points="66.1,695.3 100.6,695.3 100.6,684.8 66.1,684.8" fill="#5167d6" stroke="#5a5a5a" stroke-width="0.3"/>
<polygon points="102.2,695.3 136.7,695.3 136.7,684.8 102.2,684.8" fill="#5167d6" stroke="#5a5a5a" stroke-width="0.3"/>
<polygon points="138.3,695.3 145.6,695.3 145.6,684.8 138.3,684.8" fill="#d651d0" stroke="#5a5a5a" stroke-width="0.3"/>
<polygon points="30.0,683.2 47.3,683.2 47.3,672.8 30.0,672.8" fill="#d65188" stroke="#5a5a5a" stroke-width="0.3"/>
<polygon points="48.9,683.2 83.4,683.2 83.4,672.8 48.9,672.8" fill="#5167d6" stroke="#5a5a5a" stroke-width="0.3"/>
<polygon points="85.0,683.2 119.5,683.2 119.5,672.8 85.0,672.8" fill="#5167d6" stroke="#5a5a5a" stroke-width="0.3"/>
<polygon points="121.1,683.2 145.6,683.2 145.6,672.8 121.1,672.8" fill="#51d689" stroke="#5a5a5a" stroke-width="0.3"/>
<polygon points="30.0,671.2 64.5,671.2 64.5,660.7 30.0,660.7" fill="#5167d6" stroke="#5a5a5a" stroke-width="0.3"/>
<polygon points="66.1,671.2 100.6,671.2 100.6,660.7 66.1,660.7" fill="#5167d6" stroke="#5a5a5a" stroke-width="0.3"/>
<polygon points="102.2,671.2 136.7,671.2 136.7,660.7 102.2,660.7" fill="#5167d6" stroke="#5a5a5a" stroke-width="0.3"/>
<polygon points="138.3,671.2 145.6,671.2 145.6,660.7 138.3,660.7" fill="#d651d0" stroke="#5a5a5a" stroke-width="0.3"/>
<polygon points="30.0,659.1 47.3,659.1 47.3,648.7 30.0,648.7" fill="#d65188" stroke="#5a5a5a" stroke-width="0.3"/>
<polygon points="48.9,659.1 83.4,659.1 83.4,648.7 48.9,648.7" fill="#5167d6" stroke="#5a5a5a" stroke-width="0.3"/>
<polygon points="85.0,659.1 119.5,659.1 119.5,648.7 85.0,648.7" fill="#5167d6" stroke="#5a5a5a" stroke-width="0.3"/>
<polygon points="121.1,659.1 145.6,659.1 145.6,648.7 121.1,648.7" fill="#51d689" stroke="#5a5a5a" stroke-width="0.3"/>
<polygon points="30.0,647.1 64.5,647.1 64.5,636.7 30.0,636.7" fill="#5167d6" stroke="#5a5a5a" stroke-width="0.3"/>
<polygon points="66.1,647.1 100.6,647.1 100.6,636.7 66.1,636.7" fill="#5167d6" stroke="#5a5a5a" stroke-width="0.3"/>
<polygon points="102.2,647.1 136.7,647.1 136.7,636.7 102.2,636.7" fill="#5167d6" stroke="#5a5a5a" stroke-width="0.3"/>
<polygon points="138.3,647.1 145.6,647.1 145.6,636.7 138.3,636.7" fill="#d651d0" stroke="#5a5a5a" stroke-width="0.3"/>
<polygon points="30.0,635.1 47.3,635.1 47.3,624.6 30.0,624.6" fill="#d65188" stroke="#5a5a5a" stroke-width="0.3"/>
<polygon points="48.9,635.1 83.4,635.1 83.4,624.6 48.9,624.6" fill="#5167d6" stroke="#5a5a5a" stroke-width="0.3"/>
<polygon points="85.0,635.1 119.5,635.1 119.5,624.6 85.0,624.6" fill="#5167d6" stroke="#5a5a5a" stroke-width="0.3"/>
<polygon points="121.1,635.1 145.6,635.1 145.6,624.6 121.1,624.6" fill="#51d689" stroke="#5a5a5a" stroke-width="0.3"/>
<polygon points="30.0,623.0 64.5,623.0 64.5,612.6 30.0,612.6" fill="#5167d6" stroke="#5a5a5a" stroke-width="0.3"/>
<polygon points="66.1,623.0 100.6,623.0 100.6,612.6 66.1,612.6" fill="#5167d6" stroke="#5a5a5a" stroke-width="0.3"/>
<polygon points="102.2,623.0 136.7,623.0 136.7,612.6 102.2,612.6" fill="#5167d6" stroke="#5a5a5a" stroke-width="0.3"/>
<polygon points="138.3,623.0 145.6,623.0 145.6,612.6 138.3,612.6" fill="#d651d0" stroke="#5a5a5a" stroke-width="0.3"/>
<polygon points="30.0,611.0 47.3,611.0 47.3,600.6 30.0,600.6" fill="#d65188" stroke="#5a5a5a" stroke-width="0.3"/>
<polygon points="48.9,611.0 83.4,611.0 83.4,600.6 48.9,600.6" fill="#5167d6" stroke="#5a5a5a" stroke-width="0.3"/>
<polygon points="85.0,611.0 119.5,611.0 119.5,600.6 85.0,600.6" fill="#5167d6" stroke="#5a5a5a" stroke-width="0.3"/>
<polygon points="121.1,611.0 145.6,611.0 145.6,600.6 121.1,600.6" fill="#51d689" stroke="#5a5a5a" stroke-width="0.3"/>
<polygon points="30.0,599.0 64.5,599.0 64.5,588.5 30.0,588.5" fill="#5167d6" stroke="#5a5a5a" stroke-width="0.3"/>
<polygon points="66.1,599.0 100.6,599.0 100.6,588.5 66.1,588.5" fill="#5167d6" stroke="#5a5a5a" stroke-width="0.3"/>
<polygon points="102.2,599.0 136.7,599.0 136.7,588.5 102.2,588.5" fill="#5167d6" stroke="#5a5a5a" stroke-width="0.3"/>
<polygon points="138.3,599.0 145.6,599.0 145.6,588.5 138.3,588.5" fill="#d651d0" stroke="#5a5a5a" stroke-width="0.3"/>
<polygon points="30.0,586.9 47.3,586.9 47.3,576.5 30.0,576.5" fill="#d65188" stroke="#5a5a5a" stroke-width="0.3"/>
<polygon points="48.9,586.9 83.4,586.9 83.4,576.5 48.9,576.5" fill="#5167d6" stroke="#5a5a5a" stroke-width="0.3"/>
<polygon points="85.0,586.9 119.5,586.9 119.5,576.5 85.0,576.5" fill="#5167d6" stroke="#5a5a5a" stroke-width="0.3"/>
<polygon points="121.1,586.9 145.6,586.9 145.6,576.5 121.1,576.5" fill="#51d689" stroke="#5a5a5a" stroke-width="0.3"/>
<polygon points="30.0,574.9 64.5,574.9 64.5,564.4 30.0,564.4" fill="#5167d6" stroke="#5a5a5a" stroke-width="0.3"/>
<polygon points="66.1,574.9 100.6,574.9 100.6,564.4 66.1,564.4" fill="#5167d6" stroke="#5a5a5a" stroke-width="0.3"/>
<polygon points="102.2,574.9 136.7,574.9 136.7,564.4 102.2,564.4" fill="#5167d6" stroke="#5a5a5a" stroke-width="0.3"/>
<polygon points="138.3,574.9 145.6,574.9 145.6,564.4 138.3,564.4" fill="#d651d0" stroke="#5a5a5a" stroke-width="0.3"/>
<polygon points="30.0,562.8 47.3,562.8 47.3,552.4 30.0,552.4" fill="#d65188" stroke="#5a5a5a" stroke-width="0.3"/>
<polygon points="48.9,562.8 83.4,562.8 83.4,552.4 48.9,552.4" fill="#5167d6" stroke="#5a5a5a" stroke-width="0.3"/>
<polygon points="85.0,562.8 119.5,562.8 119.5,552.4 85.0,552.4" fill="#5167d6" stroke="#5a5a5a" stroke-width="0.3"/>
<polygon points="121.1,562.8 145.6,562.8 145.6,552.4 121.1,552.4" fill="#51d689" stroke="#5a5a5a" stroke-width="0.3"/>
<polygon points="30.0,550.8 64.5,550.8 64.5,540.4 30.0,540.4" fill="#5167d6" stroke="#5a5a5a" stroke-width="0.3"/>
<polygon points="66.1,550.8 100.6,550.8 100.6,540.4 66.1,540.4" fill="#5167d6" stroke="#5a5a5a" stroke-width="0.3"/>
<polygon points="102.2,550.8 136.7,550.8 136.7,540.4 102.2,540.4" fill="#5167d6" stroke="#5a5a5a" stroke-width="0.3"/>
<polygon points="138.3,550.8 145.6,550.8 145.6,540.4 138.3,540.4" fill="#d651d0" stroke="#5a5a5a" stroke-width="0.3"/>
<polygon points="30.0,538.8 47.3,538.8 47.3,528.3 30.0,528.3" fill="#d65188" stroke="#5a5a5a" stroke-width="0.3"/>
<polygon points="48.9,538.8 83.4,538.8 83.4,528.3 48.9,528.3" fill="#5167d6" stroke="#5a5a5a" stroke-width="0.3"/>
<polygon points="85.0,538.8 119.5,538.8 119.5,528.3 85.0,528.3" fill="#5167d6" stroke="#5a5a5a" stroke-width="0.3"/>
<polygon points="121.1,538.8 145.6,538.8 145.6,528.3 121.1,528.3" fill="#51d689" stroke="#5a5a5a" stroke-width="0.3"/>
<polygon points="30.0,526.7 64.5,526.7 64.5,516.3 30.0,516.3" fill="#5167d6" stroke="#5a5a5a" stroke-width="0.3"/>
<polygon points="66.1,526.7 100.6,526.7 100.6,516.3 66.1,516.3" fill="#5167d6" stroke="#5a5a5a" stroke-width="0.3"/>
<polygon points="102.2,526.7 136.7,526.7 136.7,516.3 102.2,516.3" fill="#5167d6" stroke="#5a5a5a" stroke-width="0.3"/>
<polygon points="138.3,526.7 145.6,526.7 145.6,516.3 138.3,516.3" fill="#d651d0" stroke="#5a5a5a" stroke-width="0.3"/>
<polygon points="30.0,514.7 47.3,514.7 47.3,504.3 30.0,504.3" fill="#d65188" stroke="#5a5a5a" stroke-width="0.3"/>
<polygon points="48.9,514.7 83.4,514.7 83.4,504.3 48.9,504.3" fill="#5167d6" stroke="#5a5a5a" stroke-width="0.3"/>
<polygon points="85.0,514.7 119.5,514.7 119.5,504.3 85.0,504.3" fill="#5167d6" stroke="#5a5a5a" stroke-width="0.3"/>
<polygon points="121.1,514.7 145.6,514.7 145.6,504.3 121.1,504.3" fill="#51d689" stroke="#5a5a5a" stroke-width="0.3"/>
<polygon points="30.0,502.7 64.5,502.7 64.5,492.2 30.0,492.2" fill="#5167d6" stroke="#5a5a5a" stroke-width="0.3"/>
<polygon points="66.1,502.7 100.6,502.7 100.6,492.2 66.1,492.2" fill="#5167d6" stroke="#5a5a5a" stroke-width="0.3"/>
<polygon points="102.2,502.7 136.7,502.7 136.7,492.2 102.2,492.2" fill="#5167d6" stroke="#5a5a5a" stroke-width="0.3"/>
<polygon points="138.3,502.7 145.6,502.7 145.6,492.2 138.3,492.2" fill="#d651d0" stroke="#5a5a5a" stroke-width="0.3"/>
<polygon points="30.0,490.6 47.3,490.6 47.3,480.2 30.0,480.2" fill="#d65188" stroke="#5a5a5a" stroke-width="0.3"/>
<polygon points="48.9,490.6 83.4,490.6 83.4,480.2 48.9,480.2" fill="#5167d6" stroke="#5a5a5a" stroke-width="0.3"/>
<polygon points="85.0,490.6 119.5,490.6 119.5,480.2 85.0,480.2" fill="#5167d6" stroke="#5a5a5a" stroke-width="0.3"/>
<polygon points="121.1,490.6 145.6,490.6 145.6,480.2 121.1,480.2" fill="#51d689" stroke="#5a5a5a" stroke-width="0.3"/>
<polygon points="30.0,478.6 64.5,478.6 64.5,468.1 30.0,468.1" fill="#5167d6" stroke="#5a5a5a" stroke-width="0.3"/>
<polygon points="66.1,478.6 100.6,478.6 100.6,468.1 66.1,468.1" fill="#5167d6" stroke="#5a5a5a" stroke-width="0.3"/>
<polygon points="102.2,478.6 136.7,478.6 136.7,468.1 102.2,468.1" fill="#5167d6" stroke="#5a5a5a" stroke-width="0.3"/>
<polygon points="138.3,478.6 145.6,478.6 145.6,468.1 138.3,468.1" fill="#d651d0" stroke="#5a5a5a" stroke-width="0.3"/>
<polygon points="30.0,466.5 47.3,466.5 47.3,456.1 30.0,456.1" fill="#d65188" stroke="#5a5a5a" stroke-width="0.3"/>
<polygon points="48.9,466.5 83.4,466.5 83.4,456.1 48.9,456.1" fill="#5167d6" stroke="#5a5a5a" stroke-width="0.3"/>
<polygon points="85.0,466.5 119.5,466.5 119.5,456.1 85.0,456.1" fill="#5167d6" stroke="#5a5a5a" stroke-width="0.3"/>
<polygon points="121.1,466.5 145.6,466.5 145.6,456.1 121.1,456.1" fill="#51d689" stroke="#5a5a5a" stroke-width="0.3"/>
<polygon points="30.0,454.5 64.5,454.5 64.5,444.1 30.0,444.1" fill="#5167d6" stroke="#5a5a5a" stroke-width="0.3"/>
<polygon points="66.1,454.5 100.6,454.5 100.6,444.1 66.1,444.1" fill="#5167d6" stroke="#5a5a5a" stroke-width="0.3"/>
<polygon points="102.2,454.5 136.7,454.5 136.7,444.1 102.2,444.1" fill="#5167d6" stroke="#5a5a5a" stroke-width="0.3"/>
<polygon points="138.3,454.5 145.6,454.5 145.6,444.1 138.3,444.1" fill="#d651d0" stroke="#5a5a5a" stroke-width="0.3"/>
<polygon points="30.0,442.5 47.3,442.5 47.3,432.0 30.0,432.0" fill="#d65188" stroke="#5a5a5a" stroke-width="0.3"/>
<polygon points="48.9,442.5 83.4,442.5 83.4,432.0 48.9,432.0" fill="#5167d6" stroke="#5a5a5a" stroke-width="0.3"/>
<polygon points="85.0,442.5 119.5,442.5 119.5,432.0 85.0,432.0" fill="#5167d6" stroke="#5a5a5a" stroke-width="0.3"/>
<polygon points="121.1,442.5 145.6,442.5 145.6,432.0 121.1,432.0" fill="#51d689" stroke="#5a5a5a" stroke-width="0.3"/>
<polygon points="30.0,430.4 64.5,430.4 64.5,420.0 30.0,420.0" fill="#5167d6" stroke="#5a5a5a" stroke-width="0.3"/>
<polygon points="66.1,430.4 100.6,430.4 100.6,420.0 66.1,420.0" fill="#5167d6" stroke="#5a5a5a" stroke-width="0.3"/>
<polygon points="102.2,430.4 136.7,430.4 136.7,420.0 102.2,420.0" fill="#5167d6" stroke="#5a5a5a" stroke-width="0.3"/>
<polygon points="138.3,430.4 145.6,430.4 145.6,420.0 138.3,420.0" fill="#d651d0" stroke="#5a5a5a" stroke-width="0.3"/>
<polygon points="30.0,418.4 47.3,418.4 47.3,408.0 30.0,408.0" fill="#d65188" stroke="#5a5a5a" stroke-width="0.3"/>
<polygon points="48.9,418.4 83.4,418.4 83.4,408.0 48.9,408.0" fill="#5167d6" stroke="#5a5a5a" stroke-width="0.3"/>
<polygon points="85.0,418.4 119.5,418.4 119.5,408.0 85.0,408.0" fill="#5167d6" stroke="#5a5a5a" stroke-width="0.3"/>
<polygon points="121.1,418.4 145.6,418.4 145.6,408.0 121.1,408.0" fill="#51d689" stroke="#5a5a5a" stroke-width="0.3"/>
<polygon points="30.0,406.4 64.5,406.4 64.5,395.9 30.0,395.9" fill="#5167d6" stroke="#5a5a5a" stroke-width="0.3"/>
<polygon points="66.1,406.4 100.6,406.4 100.6,395.9 66.1,395.9" fill="#5167d6" stroke="#5a5a5a" stroke-width="0.3"/>
<polygon points="102.2,406.4 136.7,406.4 136.7,395.9 102.2,395.9" fill="#5167d6" stroke="#5a5a5a" stroke-width="0.3"/>
<polygon points="138.3,406.4 145.6,406.4 145.6,395.9 138.3,395.9" fill="#d651d0" stroke="#5a5a5a" stroke-width="0.3"/>
<polygon points="30.0,394.3 47.3,394.3 47.3,383.9 30.0,383.9" fill="#d65188" stroke="#5a5a5a" stroke-width="0.3"/>
<polygon points="48.9,394.3 83.4,394.3 83.4,383.9 48.9,383.9" fill="#5167d6" stroke="#5a5a5a" stroke-width="0.3"/>
<polygon points="85.0,394.3 119.5,394.3 119.5,383.9 85.0,383.9" fill="#5167d6" stroke="#5a5a5a" stroke-width="0.3"/>
<polygon points="121.1,394.3 145.6,394.3 145.6,383.9 121.1,383.9" fill="#51d689" stroke="#5a5a5a" stroke-width="0.3"/>
<polygon points="30.0,382.3 64.5,382.3 64.5,371.8 30.0,371.8" fill="#5167d6" stroke="#5a5a5a" stroke-width="0.3"/>
<polygon points="66.1,382.3 100.6,382.3 100.6,371.8 66.1,371.8" fill="#5167d6" stroke="#5a5a5a" stroke-width="0.3"/>
<polygon points="102.2,382.3 136.7,382.3 136.7,371.8 102.2,371.8" fill="#5167d6" stroke="#5a5a5a" stroke-width="0.3"/>
<polygon points="138.3,382.3 145.6,382.3 145.6,371.8 138.3,371.8" fill="#d651d0" stroke="#5a5a5a" stroke-width="0.3"/>
<polygon points="30.0,370.2 47.3,370.2 47.3,359.8 30.0,359.8" fill="#d65188" stroke="#5a5a5a" stroke-width="0.3"/>
<polygon points="48.9,370.2 83.4,370.2 83.4,359.8 48.9,359.8" fill="#5167d6" stroke="#5a5a5a" stroke-width="0.3"/>
<polygon points="85.0,370.2 119.5,370.2 119.5,359.8 85.0,359.8" fill="#5167d6" stroke="#5a5a5a" stroke-width="0.3"/>
<polygon points="121.1,370.2 145.6,370.2 145.6,359.8 121.1,359.8" fill="#51d689" stroke="#5a5a5a" stroke-width="0.3"/>
<polygon points="30.0,358.2 64.5,358.2 64.5,347.8 30.0,347.8" fill="#5167d6" stroke="#5a5a5a" stroke-width="0.3"/>
<polygon points="66.1,358.2 100.6,358.2 100.6,347.8 66.1,347.8" fill="#5167d6" stroke="#5a5a5a" stroke-width="0.3"/>
<polygon points="102.2,358.2 136.7,358.2 136.7,347.8 102.2,347.8" fill="#5167d6" stroke="#5a5a5a" stroke-width="0.3"/>
<polygon points="138.3,358.2 145.6,358.2 145.6,347.8 138.3,347.8" fill="#d651d0" stroke="#5a5a5a" stroke-width="0.3"/>
<polygon points="30.0,346.2 47.3,346.2 47.3,335.7 30.0,335.7" fill="#d65188" stroke="#5a5a5a" stroke-width="0.3"/>
<polygon points="48.9,346.2 83.4,346.2 83.4,335.7 48.9,335.7" fill="#5167d6" stroke="#5a5a5a" stroke-width="0.3"/>
<polygon points="85.0,346.2 119.5,346.2 119.5,335.7 85.0,335.7" fill="#5167d6" stroke="#5a5a5a" stroke-width="0.3"/>
<polygon points="121.1,346.2 145.6,346.2 145.6,335.7 121.1,335.7" fill="#51d689" stroke="#5a5a5a" stroke-width="0.3"/>
<polygon points="30.0,334.1 64.5,334.1 64.5,323.7 30.0,323.7" fill="#5167d6" stroke="#5a5a5a" stroke-width="0.3"/>
<polygon points="66.1,334.1 100.6,334.1 100.6,323.7 66.1,323.7" fill="#5167d6" stroke="#5a5a5a" stroke-width="0.3"/>
<polygon points="102.2,334.1 136.7,334.1 136.7,323.7 102.2,323.7" fill="#5167d6" stroke="#5a5a5a" stroke-width="0.3"/>
<polygon points="138.3,334.1 145.6,334.1 145.6,323.7 138.3,323.7" fill="#d651d0" stroke="#5a5a5a" stroke-width="0.3"/>
<polygon points="30.0,322.1 47.3,322.1 47.3,311.7 30.0,311.7" fill="#d65188" stroke="#5a5a5a" stroke-width="0.3"/>
<polygon points="48.9,322.1 83.4,322.1 83.4,311.7 48.9,311.7" fill="#5167d6" stroke="#5a5a5a" stroke-width="0.3"/>
<polygon points="85.0,322.1 119.5,322.1 119.5,311.7 85.0,311.7" fill="#5167d6" stroke="#5a5a5a" stroke-width="0.3"/>
<polygon points="121.1,322.1 145.6,322.1 145.6,311.7 121.1,311.7" fill="#51d689" stroke="#5a5a5a" stroke-width="0.3"/>
<polygon points="30.0,310.1 64.5,310.1 64.5,299.6 30.0,299.6" fill="#5167d6" stroke="#5a5a5a" stroke-width="0.3"/>
<polygon points="66.1,310.1 100.6,310.1 100.6,299.6 66.1,299.6" fill="#5167d6" stroke="#5a5a5a" stroke-width="0.3"/>
<polygon points="102.2,310.1 136.7,310.1 136.7,299.6 102.2,299.6" fill="#5167d6" stroke="#5a5a5a" stroke-width="0.3"/>
<polygon points="138.3,310.1 145.6,310.1 145.6,299.6 138.3,299.6" fill="#d651d0" stroke="#5a5a5a" stroke-width="0.3"/>
<polygon points="30.0,298.0 47.3,298.0 47.3,287.6 30.0,287.6" fill="#d65188" stroke="#5a5a5a" stroke-width="0.3"/>
<polygon points="48.9,298.0 83.4,298.0 83.4,287.6 48.9,287.6" fill="#5167d6" stroke="#5a5a5a" stroke-width="0.3"/>
<polygon points="85.0,298.0 119.5,298.0 119.5,287.6 85.0,287.6" fill="#5167d6" stroke="#5a5a5a" stroke-width="0.3"/>
<polygon points="121.1,298.0 145.6,298.0 145.6,287.6 121.1,287.6" fill="#51d689" stroke="#5a5a5a" stroke-width="0.3"/>
<polygon points="30.0,286.0 64.5,286.0 64.5,275.5 30.0,275.5" fill="#5167d6" stroke="#5a5a5a" stroke-width="0.3"/>
<polygon points="66.1,286.0 100.6,286.0 100.6,275.5 66.1,275.5" fill="#5167d6" stroke="#5a5a5a" stroke-width="0.3"/>
<polygon points="102.2,286.0 136.7,286.0 136.7,275.5 102.2,275.5" fill="#5167d6" stroke="#5a5a5a" stroke-width="0.3"/>
<polygon points="138.3,286.0 145.6,286.0 145.6,275.5 138.3,275.5" fill="#d651d0" stroke="#5a5a5a" stroke-width="0.3"/>
<polygon points="30.0,273.9 47.3,273.9 47.3,263.5 30.0,263.5" fill="#d65188" stroke="#5a5a5a" stroke-width="0.3"/>
<polygon points="48.9,273.9 83.4,273.9 83.4,263.5 48.9,263.5" fill="#5167d6" stroke="#5a5a5a" stroke-width="0.3"/>
<polygon points="85.0,273.9 119.5,273.9 119.5,263.5 85.0,263.5" fill="#5167d6" stroke="#5a5a5a" stroke-width="0.3"/>
<polygon points="121.1,273.9 145.6,273.9 145.6,263.5 121.1,263.5" fill="#51d689" stroke="#5a5a5a" stroke-width="0.3"/>
<polygon points="30.0,261.9 64.5,261.9 64.5,251.5 30.0,251.5" fill="#5167d6" stroke="#5a5a5a" stroke-width="0.3"/>
<polygon points="66.1,261.9 100.6,261.9 100.6,251.5 66.1,251.5" fill="#5167d6" stroke="#5a5a5a" stroke-width="0.3"/>
<polygon points="102.2,261.9 136.7,261.9 136.7,251.5 102.2,251.5" fill="#5167d6" stroke="#5a5a5a" stroke-width="0.3"/>
<polygon points="138.3,261.9 145.6,261.9 145.6,251.5 138.3,251.5" fill="#d651d0" stroke="#5a5a5a" stroke-width="0.3"/>
<polygon points="30.0,249.9 47.3,249.9 47.3,239.4 30.0,239.4" fill="#d65188" stroke="#5a5a5a" stroke-width="0.3"/>
<polygon points="48.9,249.9 83.4,249.9 83.4,239.4 48.9,239.4" fill="#5167d6" stroke="#5a5a5a" stroke-width="0.3"/>
<polygon points="85.0,249.9 119.5,249.9 119.5,239.4 85.0,239.4" fill="#5167d6" stroke="#5a5a5a" stroke-width="0.3"/>
<polygon points="121.1,249.9 145.6,249.9 145.6,239.4 121.1,239.4" fill="#51d689" stroke="#5a5a5a" stroke-width="0.3"/>
<polygon points="30.0,237.8 64.5,237.8 64.5,227.4 30.0,227.4" fill="#5167d6" stroke="#5a5a5a" stroke-width="0.3"/>
<polygon points="66.1,237.8 100.6,237.8 100.6,227.4 66.1,227.4" fill="#5167d6" stroke="#5a5a5a" stroke-width="0.3"/>
<polygon points="102.2,237.8 136.7,237.8 136.7,227.4 102.2,227.4" fill="#5167d6" stroke="#5a5a5a" stroke-width="0.3"/>
<polygon points="138.3,237.8 145.6,237.8 145.6,227.4 138.3,227.4" fill="#d651d0" stroke="#5a5a5a" stroke-width="0.3"/>
<polygon points="30.0,225.8 47.3,225.8 47.3,215.4 30.0,215.4" fill="#d65188" stroke="#5a5a5a" stroke-width="0.3"/>
<polygon points="48.9,225.8 83.4,225.8 83.4,215.4 48.9,215.4" fill="#5167d6" stroke="#5a5a5a" stroke-width="0.3"/>
<polygon points="85.0,225.8 119.5,225.8 119.5,215.4 85.0,215.4" fill="#5167d6" stroke="#5a5a5a" stroke-width="0.3"/>
<polygon points="121.1,225.8 145.6,225.8 145.6,215.4 121.1,215.4" fill="#51d689" stroke="#5a5a5a" stroke-width="0.3"/>
<polygon points="30.0,213.8 64.5,213.8 64.5,203.3 30.0,203.3" fill="#5167d6" stroke="#5a5a5a" stroke-width="0.3"/>
<polygon points="66.1,213.8 100.6,213.8 100.6,203.3 66.1,203.3" fill="#5167d6" stroke="#5a5a5a" stroke-width="0.3"/>
<polygon points="102.2,213.8 136.7,213.8 136.7,203.3 102.2,203.3" fill="#5167d6" stroke="#5a5a5a" stroke-width="0.3"/>
<polygon points="138.3,213.8 145.6,213.8 145.6,203.3 138.3,203.3" fill="#d651d0" stroke="#5a5a5a" stroke-width="0.3"/>
<polygon points="30.0,201.7 47.3,201.7 47.3,191.3 30.0,191.3" fill="#d65188" stroke="#5a5a5a" stroke-width="0.3"/>
<polygon points="48.9,201.7 83.4,201.7 83.4,191.3 48.9,191.3" fill="#5167d6" stroke="#5a5a5a" stroke-width="0.3"/>
<polygon points="85.0,201.7 119.5,201.7 119.5,191.3 85.0,191.3" fill="#5167d6" stroke="#5a5a5a" stroke-width="0.3"/>
<polygon points="121.1,201.7 145.6,201.7 145.6,191.3 121.1,191.3" fill="#51d689" stroke="#5a5a5a" stroke-width="0.3"/>
<polygon points="30.0,189.7 64.5,189.7 64.5,179.2 30.0,179.2" fill="#5167d6" stroke="#5a5a5a" stroke-width="0.3"/>
<polygon points="66.1,189.7 100.6,189.7 100.6,179.2 66.1,179.2" fill="#5167d6" stroke="#5a5a5a" stroke-width="0.3"/>
<polygon points="102.2,189.7 136.7,189.7 136.7,179.2 102.2,179.2" fill="#5167d6" stroke="#5a5a5a" stroke-width="0.3"/>
<polygon points="138.3,189.7 145.6,189.7 145.6,179.2 138.3,179.2" fill="#d651d0" stroke="#5a5a5a" stroke-width="0.3"/>
<polygon points="30.0,177.6 47.3,177.6 47.3,167.2 30.0,167.2" fill="#d65188" stroke="#5a5a5a" stroke-width="0.3"/>
<polygon points="48.9,177.6 83.4,177.6 83.4,167.2 48.9,167.2" fill="#5167d6" stroke="#5a5a5a" stroke-width="0.3"/>
<polygon points="85.0,177.6 119.5,177.6 119.5,167.2 85.0,167.2" fill="#5167d6" stroke="#5a5a5a" stroke-width="0.3"/>
<polygon points="121.1,177.6 145.6,177.6 145.6,167.2 121.1,167.2" fill="#51d689" stroke="#5a5a5a" stroke-width="0.3"/>
<polygon points="30.0,165.6 64.5,165.6 64.5,155.2 30.0,155.2" fill="#5167d6" stroke="#5a5a5a" stroke-width="0.3"/>
<polygon points="66.1,165.6 100.6,165.6 100.6,155.2 66.1,155.2" fill="#5167d6" stroke="#5a5a5a" stroke-width="0.3"/>
<polygon points="102.2,165.6 136.7,165.6 136.7,155.2 102.2,155.2" fill="#5167d6" stroke="#5a5a5a" stroke-width="0.3"/>
<polygon points="138.3,165.6 145.6,165.6 145.6,155.2 138.3,155.2" fill="#d651d0" stroke="#5a5a5a" stroke-width="0.3"/>
<polygon points="30.0,153.6 47.3,153.6 47.3,143.1 30.0,143.1" fill="#d65188" stroke="#5a5a5a" stroke-width="0.3"/>
<polygon points="48.9,153.6 83.4,153.6 83.4,143.1 48.9,143.1" fill="#5167d6" stroke="#5a5a5a" stroke-width="0.3"/>
<polygon points="85.0,153.6 119.5,153.6 119.5,143.1 85.0,143.1" fill="#5167d6" stroke="#5a5a5a" stroke-width="0.3"/>
<polygon points="121.1,153.6 145.6,153.6 145.6,143.1 121.1,143.1" fill="#51d689" stroke="#5a5a5a" stroke-width="0.3"/>
<polygon points="30.0,141.5 64.5,141.5 64.5,131.1 30.0,131.1" fill="#5167d6" stroke="#5a5a5a" stroke-width="0.3"/>
<polygon points="66.1,141.5 100.6,141.5 100.6,131.1 66.1,131.1" fill="#5167d6" stroke="#5a5a5a" stroke-width="0.3"/>
<polygon points="102.2,141.5 136.7,141.5 136.7,131.1 102.2,131.1" fill="#5167d6" stroke="#5a5a5a" stroke-width="0.3"/>
<polygon points="138.3,141.5 145.6,141.5 145.6,131.1 138.3,131.1" fill="#d651d0" stroke="#5a5a5a" stroke-width="0.3"/>
<polygon points="30.0,129.5 47.3,129.5 47.3,119.1 30.0,119.1" fill="#d65188" stroke="#5a5a5a" stroke-width="0.3"/>
<polygon points="48.9,129.5 83.4,129.5 83.4,119.1 48.9,119.1" fill="#5167d6" stroke="#5a5a5a" stroke-width="0.3"/>
<polygon points="85.0,129.5 119.5,129.5 119.5,119.1 85.0,119.1" fill="#5167d6" stroke="#5a5a5a" stroke-width="0.3"/>
<polygon points="121.1,129.5 145.6,129.5 145.6,119.1 121.1,119.1" fill="#51d689" stroke="#5a5a5a" stroke-width="0.3"/>
<polygon points="30.0,117.5 64.5,117.5 64.5,107.0 30.0,107.0" fill="#5167d6" stroke="#5a5a5a" stroke-width="0.3"/>
<polygon points="66.1,117.5 100.6,117.5 100.6,107.0 66.1,107.0" fill="#5167d6" stroke="#5a5a5a" stroke-width="0.3"/>
<polygon points="102.2,117.5 136.7,117.5 136.7,107.0 102.2,107.0" fill="#5167d6" stroke="#5a5a5a" stroke-width="0.3"/>
<polygon points="138.3,117.5 145.6,117.5 145.6,107.0 138.3,107.0" fill="#d651d0" stroke="#5a5a5a" stroke-width="0.3"/>
<polygon points="30.0,105.4 47.3,105.4 47.3,95.0 30.0,95.0" fill="#d65188" stroke="#5a5a5a" stroke-width="0.3"/>
<polygon points="48.9,105.4 83.4,105.4 83.4,95.0 48.9,95.0" fill="#5167d6" stroke="#5a5a5a" stroke-width="0.3"/>
<polygon points="85.0,105.4 119.5,105.4 119.5,95.0 85.0,95.0" fill="#5167d6" stroke="#5a5a5a" stroke-width="0.3"/>
<polygon points="121.1,105.4 145.6,105.4 145.6,95.0 121.1,95.0" fill="#51d689" stroke="#5a5a5a" stroke-width="0.3"/>
<polygon points="30.0,93.4 64.5,93.4 64.5,86.0 30.0,86.0" fill="#d66251" stroke="#5a5a5a" stroke-width="0.3"/>
<polygon points="66.1,93.4 100.6,93.4 100.6,86.0 66.1,86.0" fill="#d66251" stroke="#5a5a5a" stroke-width="0.3"/>
<polygon points="102.2,93.4 136.7,93.4 136.7,86.0 102.2,86.0" fill="#d66251" stroke="#5a5a5a" stroke-width="0.3"/>
<polygon points="138.3,93.4 145.6,93.4 145.6,86.0 138.3,86.0" fill="#5182d6" stroke="#5a5a5a" stroke-width="0.3"/>
<text x="169" y="92" font-size="13" font-weight="bold" fill="#111">Type ID 图例 Legend (this face)</text>
<rect x="169" y="104" width="15" height="11" fill="#5167d6" stroke="#555" stroke-width="0.4"/>
<text x="190" y="114" font-size="11.5" fill="#222">B21  215×65  ×175</text>
<rect x="169" y="123" width="15" height="11" fill="#d66251" stroke="#555" stroke-width="0.4"/>
<text x="190" y="133" font-size="11.5" fill="#222">B22  215×48  ×3</text>
<rect x="169" y="142" width="15" height="11" fill="#51d689" stroke="#555" stroke-width="0.4"/>
<text x="190" y="152" font-size="11.5" fill="#222">B23  152×65  ×35</text>
<rect x="169" y="161" width="15" height="11" fill="#d65188" stroke="#555" stroke-width="0.4"/>
<text x="190" y="171" font-size="11.5" fill="#222">B27  108×65  ×35</text>
<rect x="169" y="180" width="15" height="11" fill="#d651d0" stroke="#555" stroke-width="0.4"/>
<text x="190" y="190" font-size="11.5" fill="#222">B32  45×65  ×35</text>
<rect x="169" y="199" width="15" height="11" fill="#5182d6" stroke="#555" stroke-width="0.4"/>
<text x="190" y="209" font-size="11.5" fill="#222">B34  45×46  ×1</text>
<rect x="30" y="970.0" width="40.1" height="6" fill="#111"/>
<rect x="70.1" y="970.0" width="40.1" height="6" fill="#999"/>
<text x="30" y="966.0" font-size="11" fill="#111">0</text>
<text x="110.2" y="966.0" font-size="11" fill="#111">500 mm</text>
</svg>