<svg xmlns="http://www.w3.org/2000/svg" viewBox="0 0 1180 942" width="1180" height="942"><rect width="1180" height="942" fill="#ffffff"/><text x="40.0" y="34.0" font-family="ui-monospace,'SFMono-Regular',Menlo,Consolas,monospace" font-size="15" fill="#2b2e33" text-anchor="start" font-weight="600">卡扣切割类型图 Clip Cutting Types</text><text x="40.0" y="54.0" font-family="ui-monospace,'SFMono-Regular',Menlo,Consolas,monospace" font-size="10" fill="#6b7280" text-anchor="start">10 types · 68 mm strips, t=0.25 mm · holes Ø3.5 · dims in mm</text><rect x="40.0" y="92.0" width="540.0" height="152.0" fill="none" stroke="#e3e6ea"/><rect x="52.0" y="104.0" width="14.0" height="14.0" fill="#8a8f98" stroke="none"/><text x="74.0" y="115.0" font-family="ui-monospace,'SFMono-Regular',Menlo,Consolas,monospace" font-size="13" fill="#2b2e33" text-anchor="start" font-weight="600">R1000</text><text x="568.0" y="115.0" font-family="ui-monospace,'SFMono-Regular',Menlo,Consolas,monospace" font-size="10" fill="#6b7280" text-anchor="end">数量 Qty 1157</text><text x="52.0" y="132.0" font-family="ui-monospace,'SFMono-Regular',Menlo,Consolas,monospace" font-size="8.5" fill="#6b7280" text-anchor="start">孔 Holes 7×Ø3.5 @ 125 pitch · 螺钉 Screws 7/pc</text><polygon points="490.0,192.6 70.0,192.6 70.0,164.0 490.0,164.0" fill="#e2e5ea" stroke="#2b2e33" stroke-width="1.2" stroke-linejoin="round"/><line x1="70.0" y1="194.6" x2="70.0" y2="209.6" stroke="#6b7280" stroke-width="0.5"/><line x1="490.0" y1="194.6" x2="490.0" y2="209.6" stroke="#6b7280" stroke-width="0.5"/><line x1="70.0" y1="206.6" x2="490.0" y2="206.6" stroke="#3a3f45" stroke-width="0.7"/><line x1="67.9" y1="208.7" x2="72.1" y2="204.4" stroke="#3a3f45" stroke-width="1"/><line x1="487.9" y1="208.7" x2="492.1" y2="204.4" stroke="#3a3f45" stroke-width="1"/><text x="280.0" y="203.6" font-family="ui-monospace,'SFMono-Regular',Menlo,Consolas,monospace" font-size="9" fill="#3a3f45" text-anchor="middle">1000</text><line x1="492.0" y1="164.0" x2="505.0" y2="164.0" stroke="#6b7280" stroke-width="0.5"/><line x1="492.0" y1="192.6" x2="505.0" y2="192.6" stroke="#6b7280" stroke-width="0.5"/><line x1="502.0" y1="164.0" x2="502.0" y2="192.6" stroke="#3a3f45" stroke-width="0.7"/><line x1="499.9" y1="161.9" x2="504.1" y2="166.1" stroke="#3a3f45" stroke-width="1"/><line x1="499.9" y1="190.4" x2="504.1" y2="194.7" stroke="#3a3f45" stroke-width="1"/><text x="506.0" y="178.3" font-family="ui-monospace,'SFMono-Regular',Menlo,Consolas,monospace" font-size="9" fill="#3a3f45" text-anchor="start" dominant-baseline="middle">68</text><circle cx="122.5" cy="178.3" r="1.60" stroke="#3a3f45" fill="none" stroke-width="0.8"/><circle cx="175.0" cy="178.3" r="1.60" stroke="#3a3f45" fill="none" stroke-width="0.8"/><circle cx="227.5" cy="178.3" r="1.60" stroke="#3a3f45" fill="none" stroke-width="0.8"/><circle cx="280.0" cy="178.3" r="1.60" stroke="#3a3f45" fill="none" stroke-width="0.8"/><circle cx="332.5" cy="178.3" r="1.60" stroke="#3a3f45" fill="none" stroke-width="0.8"/><circle cx="385.0" cy="178.3" r="1.60" stroke="#3a3f45" fill="none" stroke-width="0.8"/><circle cx="437.5" cy="178.3" r="1.60" stroke="#3a3f45" fill="none" stroke-width="0.8"/><rect x="600.0" y="92.0" width="540.0" height="152.0" fill="none" stroke="#e3e6ea"/><rect x="612.0" y="104.0" width="14.0" height="14.0" fill="#8a8f98" stroke="none"/><text x="634.0" y="115.0" font-family="ui-monospace,'SFMono-Regular',Menlo,Consolas,monospace" font-size="13" fill="#2b2e33" text-anchor="start" font-weight="600">R700</text><text x="1128.0" y="115.0" font-family="ui-monospace,'SFMono-Regular',Menlo,Consolas,monospace" font-size="10" fill="#6b7280" text-anchor="end">数量 Qty 413</text><text x="612.0" y="132.0" font-family="ui-monospace,'SFMono-Regular',Menlo,Consolas,monospace" font-size="8.5" fill="#6b7280" text-anchor="start">孔 Holes 5×Ø3.5 @ 125 pitch · 螺钉 Screws 5/pc</text><polygon points="924.0,192.6 630.0,192.6 630.0,164.0 924.0,164.0" fill="#e2e5ea" stroke="#2b2e33" stroke-width="1.2" stroke-linejoin="round"/><line x1="630.0" y1="194.6" x2="630.0" y2="209.6" stroke="#6b7280" stroke-width="0.5"/><line x1="924.0" y1="194.6" x2="924.0" y2="209.6" stroke="#6b7280" stroke-width="0.5"/><line x1="630.0" y1="206.6" x2="924.0" y2="206.6" stroke="#3a3f45" stroke-width="0.7"/><line x1="627.9" y1="208.7" x2="632.1" y2="204.4" stroke="#3a3f45" stroke-width="1"/><line x1="921.9" y1="208.7" x2="926.1" y2="204.4" stroke="#3a3f45" stroke-width="1"/><text x="777.0" y="203.6" font-family="ui-monospace,'SFMono-Regular',Menlo,Consolas,monospace" font-size="9" fill="#3a3f45" text-anchor="middle">700</text><line x1="926.0" y1="164.0" x2="939.0" y2="164.0" stroke="#6b7280" stroke-width="0.5"/><line x1="926.0" y1="192.6" x2="939.0" y2="192.6" stroke="#6b7280" stroke-width="0.5"/><line x1="936.0" y1="164.0" x2="936.0" y2="192.6" stroke="#3a3f45" stroke-width="0.7"/><line x1="933.9" y1="161.9" x2="938.1" y2="166.1" stroke="#3a3f45" stroke-width="1"/><line x1="933.9" y1="190.4" x2="938.1" y2="194.7" stroke="#3a3f45" stroke-width="1"/><text x="940.0" y="178.3" font-family="ui-monospace,'SFMono-Regular',Menlo,Consolas,monospace" font-size="9" fill="#3a3f45" text-anchor="start" dominant-baseline="middle">68</text><circle cx="672.0" cy="178.3" r="1.60" stroke="#3a3f45" fill="none" stroke-width="0.8"/><circle cx="724.5" cy="178.3" r="1.60" stroke="#3a3f45" fill="none" stroke-width="0.8"/><circle cx="777.0" cy="178.3" r="1.60" stroke="#3a3f45" fill="none" stroke-width="0.8"/><circle cx="829.5" cy="178.3" r="1.60" stroke="#3a3f45" fill="none" stroke-width="0.8"/><circle cx="882.0" cy="178.3" r="1.60" stroke="#3a3f45" fill="none" stroke-width="0.8"/><rect x="40.0" y="260.0" width="540.0" height="152.0" fill="none" stroke="#e3e6ea"/><rect x="52.0" y="272.0" width="14.0" height="14.0" fill="#8a8f98" stroke="none"/><text x="74.0" y="283.0" font-family="ui-monospace,'SFMono-Regular',Menlo,Consolas,monospace" font-size="13" fill="#2b2e33" text-anchor="start" font-weight="600">R500</text><text x="568.0" y="283.0" font-family="ui-monospace,'SFMono-Regular',Menlo,Consolas,monospace" font-size="10" fill="#6b7280" text-anchor="end">数量 Qty 44</text><text x="52.0" y="300.0" font-family="ui-monospace,'SFMono-Regular',Menlo,Consolas,monospace" font-size="8.5" fill="#6b7280" text-anchor="start">孔 Holes 3×Ø3.5 @ 125 pitch · 螺钉 Screws 3/pc</text><polygon points="280.0,360.6 70.0,360.6 70.0,332.0 280.0,332.0" fill="#e2e5ea" stroke="#2b2e33" stroke-width="1.2" stroke-linejoin="round"/><line x1="70.0" y1="362.6" x2="70.0" y2="377.6" stroke="#6b7280" stroke-width="0.5"/><line x1="280.0" y1="362.6" x2="280.0" y2="377.6" stroke="#6b7280" stroke-width="0.5"/><line x1="70.0" y1="374.6" x2="280.0" y2="374.6" stroke="#3a3f45" stroke-width="0.7"/><line x1="67.9" y1="376.7" x2="72.1" y2="372.4" stroke="#3a3f45" stroke-width="1"/><line x1="277.9" y1="376.7" x2="282.1" y2="372.4" stroke="#3a3f45" stroke-width="1"/><text x="175.0" y="371.6" font-family="ui-monospace,'SFMono-Regular',Menlo,Consolas,monospace" font-size="9" fill="#3a3f45" text-anchor="middle">500</text><line x1="282.0" y1="332.0" x2="295.0" y2="332.0" stroke="#6b7280" stroke-width="0.5"/><line x1="282.0" y1="360.6" x2="295.0" y2="360.6" stroke="#6b7280" stroke-width="0.5"/><line x1="292.0" y1="332.0" x2="292.0" y2="360.6" stroke="#3a3f45" stroke-width="0.7"/><line x1="289.9" y1="329.9" x2="294.1" y2="334.1" stroke="#3a3f45" stroke-width="1"/><line x1="289.9" y1="358.4" x2="294.1" y2="362.7" stroke="#3a3f45" stroke-width="1"/><text x="296.0" y="346.3" font-family="ui-monospace,'SFMono-Regular',Menlo,Consolas,monospace" font-size="9" fill="#3a3f45" text-anchor="start" dominant-baseline="middle">68</text><circle cx="122.5" cy="346.3" r="1.60" stroke="#3a3f45" fill="none" stroke-width="0.8"/><circle cx="175.0" cy="346.3" r="1.60" stroke="#3a3f45" fill="none" stroke-width="0.8"/><circle cx="227.5" cy="346.3" r="1.60" stroke="#3a3f45" fill="none" stroke-width="0.8"/><rect x="600.0" y="260.0" width="540.0" height="152.0" fill="none" stroke="#e3e6ea"/><rect x="612.0" y="272.0" width="14.0" height="14.0" fill="#8a8f98" stroke="none"/><text x="634.0" y="283.0" font-family="ui-monospace,'SFMono-Regular',Menlo,Consolas,monospace" font-size="13" fill="#2b2e33" text-anchor="start" font-weight="600">R300</text><text x="1128.0" y="283.0" font-family="ui-monospace,'SFMono-Regular',Menlo,Consolas,monospace" font-size="10" fill="#6b7280" text-anchor="end">数量 Qty 216</text><text x="612.0" y="300.0" font-family="ui-monospace,'SFMono-Regular',Menlo,Consolas,monospace" font-size="8.5" fill="#6b7280" text-anchor="start">孔 Holes 3×Ø3.5 @ 100 pitch · 螺钉 Screws 3/pc</text><polygon points="756.0,360.6 630.0,360.6 630.0,332.0 756.0,332.0" fill="#e2e5ea" stroke="#2b2e33" stroke-width="1.2" stroke-linejoin="round"/><line x1="630.0" y1="362.6" x2="630.0" y2="377.6" stroke="#6b7280" stroke-width="0.5"/><line x1="756.0" y1="362.6" x2="756.0" y2="377.6" stroke="#6b7280" stroke-width="0.5"/><line x1="630.0" y1="374.6" x2="756.0" y2="374.6" stroke="#3a3f45" stroke-width="0.7"/><line x1="627.9" y1="376.7" x2="632.1" y2="372.4" stroke="#3a3f45" stroke-width="1"/><line x1="753.9" y1="376.7" x2="758.1" y2="372.4" stroke="#3a3f45" stroke-width="1"/><text x="693.0" y="371.6" font-family="ui-monospace,'SFMono-Regular',Menlo,Consolas,monospace" font-size="9" fill="#3a3f45" text-anchor="middle">300</text><line x1="758.0" y1="332.0" x2="771.0" y2="332.0" stroke="#6b7280" stroke-width="0.5"/><line x1="758.0" y1="360.6" x2="771.0" y2="360.6" stroke="#6b7280" stroke-width="0.5"/><line x1="768.0" y1="332.0" x2="768.0" y2="360.6" stroke="#3a3f45" stroke-width="0.7"/><line x1="765.9" y1="329.9" x2="770.1" y2="334.1" stroke="#3a3f45" stroke-width="1"/><line x1="765.9" y1="358.4" x2="770.1" y2="362.7" stroke="#3a3f45" stroke-width="1"/><text x="772.0" y="346.3" font-family="ui-monospace,'SFMono-Regular',Menlo,Consolas,monospace" font-size="9" fill="#3a3f45" text-anchor="start" dominant-baseline="middle">68</text><circle cx="651.0" cy="346.3" r="1.60" stroke="#3a3f45" fill="none" stroke-width="0.8"/><circle cx="693.0" cy="346.3" r="1.60" stroke="#3a3f45" fill="none" stroke-width="0.8"/><circle cx="735.0" cy="346.3" r="1.60" stroke="#3a3f45" fill="none" stroke-width="0.8"/><rect x="40.0" y="428.0" width="540.0" height="152.0" fill="none" stroke="#e3e6ea"/><rect x="52.0" y="440.0" width="14.0" height="14.0" fill="#8a8f98" stroke="none"/><text x="74.0" y="451.0" font-family="ui-monospace,'SFMono-Regular',Menlo,Consolas,monospace" font-size="13" fill="#2b2e33" text-anchor="start" font-weight="600">R250</text><text x="568.0" y="451.0" font-family="ui-monospace,'SFMono-Regular',Menlo,Consolas,monospace" font-size="10" fill="#6b7280" text-anchor="end">数量 Qty 23</text><text x="52.0" y="468.0" font-family="ui-monospace,'SFMono-Regular',Menlo,Consolas,monospace" font-size="8.5" fill="#6b7280" text-anchor="start">孔 Holes 2×Ø3.5 @ 150 pitch · 螺钉 Screws 2/pc</text><polygon points="175.0,528.6 70.0,528.6 70.0,500.0 175.0,500.0" fill="#e2e5ea" stroke="#2b2e33" stroke-width="1.2" stroke-linejoin="round"/><line x1="70.0" y1="530.6" x2="70.0" y2="545.6" stroke="#6b7280" stroke-width="0.5"/><line x1="175.0" y1="530.6" x2="175.0" y2="545.6" stroke="#6b7280" stroke-width="0.5"/><line x1="70.0" y1="542.6" x2="175.0" y2="542.6" stroke="#3a3f45" stroke-width="0.7"/><line x1="67.9" y1="544.7" x2="72.1" y2="540.4" stroke="#3a3f45" stroke-width="1"/><line x1="172.9" y1="544.7" x2="177.1" y2="540.4" stroke="#3a3f45" stroke-width="1"/><text x="122.5" y="539.6" font-family="ui-monospace,'SFMono-Regular',Menlo,Consolas,monospace" font-size="9" fill="#3a3f45" text-anchor="middle">250</text><line x1="177.0" y1="500.0" x2="190.0" y2="500.0" stroke="#6b7280" stroke-width="0.5"/><line x1="177.0" y1="528.6" x2="190.0" y2="528.6" stroke="#6b7280" stroke-width="0.5"/><line x1="187.0" y1="500.0" x2="187.0" y2="528.6" stroke="#3a3f45" stroke-width="0.7"/><line x1="184.9" y1="497.9" x2="189.1" y2="502.1" stroke="#3a3f45" stroke-width="1"/><line x1="184.9" y1="526.4" x2="189.1" y2="530.7" stroke="#3a3f45" stroke-width="1"/><text x="191.0" y="514.3" font-family="ui-monospace,'SFMono-Regular',Menlo,Consolas,monospace" font-size="9" fill="#3a3f45" text-anchor="start" dominant-baseline="middle">68</text><circle cx="91.0" cy="514.3" r="1.60" stroke="#3a3f45" fill="none" stroke-width="0.8"/><circle cx="154.0" cy="514.3" r="1.60" stroke="#3a3f45" fill="none" stroke-width="0.8"/><rect x="600.0" y="428.0" width="540.0" height="152.0" fill="none" stroke="#e3e6ea"/><rect x="612.0" y="440.0" width="14.0" height="14.0" fill="#8a8f98" stroke="none"/><text x="634.0" y="451.0" font-family="ui-monospace,'SFMono-Regular',Menlo,Consolas,monospace" font-size="13" fill="#2b2e33" text-anchor="start" font-weight="600">R100</text><text x="1128.0" y="451.0" font-family="ui-monospace,'SFMono-Regular',Menlo,Consolas,monospace" font-size="10" fill="#6b7280" text-anchor="end">数量 Qty 155</text><text x="612.0" y="468.0" font-family="ui-monospace,'SFMono-Regular',Menlo,Consolas,monospace" font-size="8.5" fill="#6b7280" text-anchor="start">孔 Holes 2×Ø3.5 @ 50 pitch · 螺钉 Screws 2/pc</text><polygon points="672.0,528.6 630.0,528.6 630.0,500.0 672.0,500.0" fill="#e2e5ea" stroke="#2b2e33" stroke-width="1.2" stroke-linejoin="round"/><line x1="630.0" y1="530.6" x2="630.0" y2="545.6" stroke="#6b7280" stroke-width="0.5"/><line x1="672.0" y1="530.6" x2="672.0" y2="545.6" stroke="#6b7280" stroke-width="0.5"/><line x1="630.0" y1="542.6" x2="672.0" y2="542.6" stroke="#3a3f45" stroke-width="0.7"/><line x1="627.9" y1="544.7" x2="632.1" y2="540.4" stroke="#3a3f45" stroke-width="1"/><line x1="669.9" y1="544.7" x2="674.1" y2="540.4" stroke="#3a3f45" stroke-width="1"/><text x="651.0" y="539.6" font-family="ui-monospace,'SFMono-Regular',Menlo,Consolas,monospace" font-size="9" fill="#3a3f45" text-anchor="middle">100</text><line x1="674.0" y1="500.0" x2="687.0" y2="500.0" stroke="#6b7280" stroke-width="0.5"/><line x1="674.0" y1="528.6" x2="687.0" y2="528.6" stroke="#6b7280" stroke-width="0.5"/><line x1="684.0" y1="500.0" x2="684.0" y2="528.6" stroke="#3a3f45" stroke-width="0.7"/><line x1="681.9" y1="497.9" x2="686.1" y2="502.1" stroke="#3a3f45" stroke-width="1"/><line x1="681.9" y1="526.4" x2="686.1" y2="530.7" stroke="#3a3f45" stroke-width="1"/><text x="688.0" y="514.3" font-family="ui-monospace,'SFMono-Regular',Menlo,Consolas,monospace" font-size="9" fill="#3a3f45" text-anchor="start" dominant-baseline="middle">68</text><circle cx="640.5" cy="514.3" r="1.60" stroke="#3a3f45" fill="none" stroke-width="0.8"/><circle cx="661.5" cy="514.3" r="1.60" stroke="#3a3f45" fill="none" stroke-width="0.8"/><rect x="40.0" y="596.0" width="540.0" height="152.0" fill="none" stroke="#e3e6ea"/><rect x="52.0" y="608.0" width="14.0" height="14.0" fill="#8a8f98" stroke="none"/><text x="74.0" y="619.0" font-family="ui-monospace,'SFMono-Regular',Menlo,Consolas,monospace" font-size="13" fill="#2b2e33" text-anchor="start" font-weight="600">R50</text><text x="568.0" y="619.0" font-family="ui-monospace,'SFMono-Regular',Menlo,Consolas,monospace" font-size="10" fill="#6b7280" text-anchor="end">数量 Qty 132</text><text x="52.0" y="636.0" font-family="ui-monospace,'SFMono-Regular',Menlo,Consolas,monospace" font-size="8.5" fill="#6b7280" text-anchor="start">孔 Holes 2×Ø3.5 @ 25 pitch · 螺钉 Screws 2/pc</text><polygon points="91.0,696.6 70.0,696.6 70.0,668.0 91.0,668.0" fill="#e2e5ea" stroke="#2b2e33" stroke-width="1.2" stroke-linejoin="round"/><line x1="70.0" y1="698.6" x2="70.0" y2="713.6" stroke="#6b7280" stroke-width="0.5"/><line x1="91.0" y1="698.6" x2="91.0" y2="713.6" stroke="#6b7280" stroke-width="0.5"/><line x1="70.0" y1="710.6" x2="91.0" y2="710.6" stroke="#3a3f45" stroke-width="0.7"/><line x1="67.9" y1="712.7" x2="72.1" y2="708.4" stroke="#3a3f45" stroke-width="1"/><line x1="88.9" y1="712.7" x2="93.1" y2="708.4" stroke="#3a3f45" stroke-width="1"/><text x="80.5" y="721.6" font-family="ui-monospace,'SFMono-Regular',Menlo,Consolas,monospace" font-size="9" fill="#3a3f45" text-anchor="middle">50</text><line x1="93.0" y1="668.0" x2="106.0" y2="668.0" stroke="#6b7280" stroke-width="0.5"/><line x1="93.0" y1="696.6" x2="106.0" y2="696.6" stroke="#6b7280" stroke-width="0.5"/><line x1="103.0" y1="668.0" x2="103.0" y2="696.6" stroke="#3a3f45" stroke-width="0.7"/><line x1="100.9" y1="665.9" x2="105.1" y2="670.1" stroke="#3a3f45" stroke-width="1"/><line x1="100.9" y1="694.4" x2="105.1" y2="698.7" stroke="#3a3f45" stroke-width="1"/><text x="107.0" y="682.3" font-family="ui-monospace,'SFMono-Regular',Menlo,Consolas,monospace" font-size="9" fill="#3a3f45" text-anchor="start" dominant-baseline="middle">68</text><circle cx="75.2" cy="682.3" r="1.60" stroke="#3a3f45" fill="none" stroke-width="0.8"/><circle cx="85.8" cy="682.3" r="1.60" stroke="#3a3f45" fill="none" stroke-width="0.8"/><rect x="600.0" y="596.0" width="540.0" height="152.0" fill="none" stroke="#e3e6ea"/><rect x="612.0" y="608.0" width="14.0" height="14.0" fill="#8a8f98" stroke="none"/><text x="634.0" y="619.0" font-family="ui-monospace,'SFMono-Regular',Menlo,Consolas,monospace" font-size="13" fill="#2b2e33" text-anchor="start" font-weight="600">R20</text><text x="1128.0" y="619.0" font-family="ui-monospace,'SFMono-Regular',Menlo,Consolas,monospace" font-size="10" fill="#6b7280" text-anchor="end">数量 Qty 7</text><text x="612.0" y="636.0" font-family="ui-monospace,'SFMono-Regular',Menlo,Consolas,monospace" font-size="8.5" fill="#6b7280" text-anchor="start">孔 Holes 2×Ø3.5 @ 10 pitch · 螺钉 Screws 2/pc</text><polygon points="630.0,696.6 638.4,696.6 638.4,668.0 630.0,668.0" fill="#e2e5ea" stroke="#2b2e33" stroke-width="1.2" stroke-linejoin="round"/><line x1="630.0" y1="698.6" x2="630.0" y2="713.6" stroke="#6b7280" stroke-width="0.5"/><line x1="638.4" y1="698.6" x2="638.4" y2="713.6" stroke="#6b7280" stroke-width="0.5"/><line x1="630.0" y1="710.6" x2="638.4" y2="710.6" stroke="#3a3f45" stroke-width="0.7"/><line x1="627.9" y1="712.7" x2="632.1" y2="708.4" stroke="#3a3f45" stroke-width="1"/><line x1="636.3" y1="712.7" x2="640.5" y2="708.4" stroke="#3a3f45" stroke-width="1"/><text x="634.2" y="721.6" font-family="ui-monospace,'SFMono-Regular',Menlo,Consolas,monospace" font-size="9" fill="#3a3f45" text-anchor="middle">20</text><line x1="640.4" y1="668.0" x2="653.4" y2="668.0" stroke="#6b7280" stroke-width="0.5"/><line x1="640.4" y1="696.6" x2="653.4" y2="696.6" stroke="#6b7280" stroke-width="0.5"/><line x1="650.4" y1="668.0" x2="650.4" y2="696.6" stroke="#3a3f45" stroke-width="0.7"/><line x1="648.3" y1="665.9" x2="652.5" y2="670.1" stroke="#3a3f45" stroke-width="1"/><line x1="648.3" y1="694.4" x2="652.5" y2="698.7" stroke="#3a3f45" stroke-width="1"/><text x="654.4" y="682.3" font-family="ui-monospace,'SFMono-Regular',Menlo,Consolas,monospace" font-size="9" fill="#3a3f45" text-anchor="start" dominant-baseline="middle">68</text><circle cx="632.1" cy="682.3" r="1.60" stroke="#3a3f45" fill="none" stroke-width="0.8"/><circle cx="636.3" cy="682.3" r="1.60" stroke="#3a3f45" fill="none" stroke-width="0.8"/><rect x="40.0" y="764.0" width="540.0" height="152.0" fill="none" stroke="#e3e6ea"/><rect x="52.0" y="776.0" width="14.0" height="14.0" fill="#8a8f98" stroke="none"/><text x="74.0" y="787.0" font-family="ui-monospace,'SFMono-Regular',Menlo,Consolas,monospace" font-size="13" fill="#2b2e33" text-anchor="start" font-weight="600">T_LEFT_40</text><text x="568.0" y="787.0" font-family="ui-monospace,'SFMono-Regular',Menlo,Consolas,monospace" font-size="10" fill="#6b7280" text-anchor="end">数量 Qty 34</text><text x="52.0" y="804.0" font-family="ui-monospace,'SFMono-Regular',Menlo,Consolas,monospace" font-size="8.5" fill="#6b7280" text-anchor="start">孔 Holes 3×Ø3.5 · 螺钉 Screws 3/pc</text><polygon points="104.0,836.0 116.6,836.0 116.6,864.6 70.0,864.6" fill="#e2e5ea" stroke="#2b2e33" stroke-width="1.2" stroke-linejoin="round"/><line x1="70.0" y1="866.6" x2="70.0" y2="881.6" stroke="#6b7280" stroke-width="0.5"/><line x1="116.6" y1="866.6" x2="116.6" y2="881.6" stroke="#6b7280" stroke-width="0.5"/><line x1="70.0" y1="878.6" x2="116.6" y2="878.6" stroke="#3a3f45" stroke-width="0.7"/><line x1="67.9" y1="880.7" x2="72.1" y2="876.4" stroke="#3a3f45" stroke-width="1"/><line x1="114.5" y1="880.7" x2="118.7" y2="876.4" stroke="#3a3f45" stroke-width="1"/><text x="93.3" y="875.6" font-family="ui-monospace,'SFMono-Regular',Menlo,Consolas,monospace" font-size="9" fill="#3a3f45" text-anchor="middle">111</text><line x1="118.6" y1="836.0" x2="131.6" y2="836.0" stroke="#6b7280" stroke-width="0.5"/><line x1="118.6" y1="864.6" x2="131.6" y2="864.6" stroke="#6b7280" stroke-width="0.5"/><line x1="128.6" y1="836.0" x2="128.6" y2="864.6" stroke="#3a3f45" stroke-width="0.7"/><line x1="126.5" y1="833.9" x2="130.7" y2="838.1" stroke="#3a3f45" stroke-width="1"/><line x1="126.5" y1="862.4" x2="130.7" y2="866.7" stroke="#3a3f45" stroke-width="1"/><text x="132.6" y="850.3" font-family="ui-monospace,'SFMono-Regular',Menlo,Consolas,monospace" font-size="9" fill="#3a3f45" text-anchor="start" dominant-baseline="middle">68</text><line x1="104.0" y1="834.0" x2="104.0" y2="823.0" stroke="#6b7280" stroke-width="0.5"/><line x1="116.6" y1="834.0" x2="116.6" y2="823.0" stroke="#6b7280" stroke-width="0.5"/><line x1="104.0" y1="826.0" x2="116.6" y2="826.0" stroke="#3a3f45" stroke-width="0.7"/><line x1="101.9" y1="828.1" x2="106.1" y2="823.9" stroke="#3a3f45" stroke-width="1"/><line x1="114.5" y1="828.1" x2="118.7" y2="823.9" stroke="#3a3f45" stroke-width="1"/><text x="110.3" y="823.0" font-family="ui-monospace,'SFMono-Regular',Menlo,Consolas,monospace" font-size="9" fill="#3a3f45" text-anchor="middle">30</text><path d="M 86.0 864.6 A 16.0 16.0 0 0 0 82.3 854.3" fill="none" stroke="#b5543b" stroke-width="0.9"/><text x="84.0" y="856.6" font-family="ui-monospace,'SFMono-Regular',Menlo,Consolas,monospace" font-size="9" fill="#b5543b" text-anchor="middle">40°</text><circle cx="93.1" cy="850.3" r="1.60" stroke="#3a3f45" fill="none" stroke-width="0.8"/><circle cx="101.5" cy="850.3" r="1.60" stroke="#3a3f45" fill="none" stroke-width="0.8"/><circle cx="109.9" cy="850.3" r="1.60" stroke="#3a3f45" fill="none" stroke-width="0.8"/><rect x="600.0" y="764.0" width="540.0" height="152.0" fill="none" stroke="#e3e6ea"/><rect x="612.0" y="776.0" width="14.0" height="14.0" fill="#8a8f98" stroke="none"/><text x="634.0" y="787.0" font-family="ui-monospace,'SFMono-Regular',Menlo,Consolas,monospace" font-size="13" fill="#2b2e33" text-anchor="start" font-weight="600">T_RIGHT_40</text><text x="1128.0" y="787.0" font-family="ui-monospace,'SFMono-Regular',Menlo,Consolas,monospace" font-size="10" fill="#6b7280" text-anchor="end">数量 Qty 34</text><text x="612.0" y="804.0" font-family="ui-monospace,'SFMono-Regular',Menlo,Consolas,monospace" font-size="8.5" fill="#6b7280" text-anchor="start">孔 Holes 3×Ø3.5 · 螺钉 Screws 3/pc</text><polygon points="630.0,836.0 642.6,836.0 676.6,864.6 630.0,864.6" fill="#e2e5ea" stroke="#2b2e33" stroke-width="1.2" stroke-linejoin="round"/><line x1="630.0" y1="866.6" x2="630.0" y2="881.6" stroke="#6b7280" stroke-width="0.5"/><line x1="676.6" y1="866.6" x2="676.6" y2="881.6" stroke="#6b7280" stroke-width="0.5"/><line x1="630.0" y1="878.6" x2="676.6" y2="878.6" stroke="#3a3f45" stroke-width="0.7"/><line x1="627.9" y1="880.7" x2="632.1" y2="876.4" stroke="#3a3f45" stroke-width="1"/><line x1="674.5" y1="880.7" x2="678.7" y2="876.4" stroke="#3a3f45" stroke-width="1"/><text x="653.3" y="875.6" font-family="ui-monospace,'SFMono-Regular',Menlo,Consolas,monospace" font-size="9" fill="#3a3f45" text-anchor="middle">111</text><line x1="678.6" y1="836.0" x2="691.6" y2="836.0" stroke="#6b7280" stroke-width="0.5"/><line x1="678.6" y1="864.6" x2="691.6" y2="864.6" stroke="#6b7280" stroke-width="0.5"/><line x1="688.6" y1="836.0" x2="688.6" y2="864.6" stroke="#3a3f45" stroke-width="0.7"/><line x1="686.5" y1="833.9" x2="690.7" y2="838.1" stroke="#3a3f45" stroke-width="1"/><line x1="686.5" y1="862.4" x2="690.7" y2="866.7" stroke="#3a3f45" stroke-width="1"/><text x="692.6" y="850.3" font-family="ui-monospace,'SFMono-Regular',Menlo,Consolas,monospace" font-size="9" fill="#3a3f45" text-anchor="start" dominant-baseline="middle">68</text><line x1="630.0" y1="834.0" x2="630.0" y2="823.0" stroke="#6b7280" stroke-width="0.5"/><line x1="642.6" y1="834.0" x2="642.6" y2="823.0" stroke="#6b7280" stroke-width="0.5"/><line x1="630.0" y1="826.0" x2="642.6" y2="826.0" stroke="#3a3f45" stroke-width="0.7"/><line x1="627.9" y1="828.1" x2="632.1" y2="823.9" stroke="#3a3f45" stroke-width="1"/><line x1="640.5" y1="828.1" x2="644.7" y2="823.9" stroke="#3a3f45" stroke-width="1"/><text x="636.3" y="823.0" font-family="ui-monospace,'SFMono-Regular',Menlo,Consolas,monospace" font-size="9" fill="#3a3f45" text-anchor="middle">30</text><path d="M 664.4 854.3 A 16.0 16.0 0 0 0 660.6 864.6" fill="none" stroke="#b5543b" stroke-width="0.9"/><text x="662.6" y="856.6" font-family="ui-monospace,'SFMono-Regular',Menlo,Consolas,monospace" font-size="9" fill="#b5543b" text-anchor="middle">40°</text><circle cx="636.7" cy="850.3" r="1.60" stroke="#3a3f45" fill="none" stroke-width="0.8"/><circle cx="645.1" cy="850.3" r="1.60" stroke="#3a3f45" fill="none" stroke-width="0.8"/><circle cx="653.5" cy="850.3" r="1.60" stroke="#3a3f45" fill="none" stroke-width="0.8"/></svg>